<?xml version="1.0" standalone="no"?>
<!DOCTYPE svg PUBLIC "-//W3C//DTD SVG 20010904//EN"
 "http://www.w3.org/TR/2001/REC-SVG-20010904/DTD/svg10.dtd">
<svg version="1.0" xmlns="http://www.w3.org/2000/svg"
 width="1050.000000pt" height="1050.000000pt" viewBox="0 0 1050.000000 1050.000000"
 preserveAspectRatio="xMidYMid meet">
<metadata>
Created by potrace 1.11, written by Peter Selinger 2001-2013
</metadata>
<g transform="translate(0.000000,1050.000000) scale(0.100000,-0.100000)"
fill="#000000" stroke="none">
<path d="M3 5254 c0 -1806 3 -3284 6 -3285 39 -5 51 -4 55 7 6 14 22 13 53 -4
13 -7 23 -9 23 -4 0 6 9 12 19 15 15 4 19 0 15 -17 -3 -20 -3 -20 14 2 16 21
20 22 31 9 9 -12 19 -13 44 -6 40 11 40 11 31 -3 -4 -7 -4 -10 1 -6 4 4 14 3
22 -3 10 -9 13 -8 13 1 0 8 12 11 34 8 22 -2 32 0 29 7 -2 7 3 12 11 12 9 0
13 -8 11 -21 -4 -20 -3 -20 12 2 15 21 17 22 35 6 15 -15 21 -15 31 -4 8 9 9
11 0 6 -6 -3 -14 -2 -17 3 -8 12 13 8 41 -7 17 -9 22 -9 26 2 6 16 22 16 54
-2 13 -7 23 -8 23 -3 0 16 34 18 56 4 18 -12 22 -11 27 1 6 16 22 16 55 -2 12
-7 22 -9 22 -4 0 6 9 12 19 15 15 4 19 0 15 -17 -3 -20 -3 -20 14 2 16 21 20
22 31 9 9 -12 19 -13 44 -6 40 11 40 11 31 -3 -4 -7 -4 -10 1 -6 4 4 14 3 22
-3 10 -9 13 -8 13 1 0 8 12 11 34 8 22 -2 32 0 29 7 -2 7 3 12 11 12 9 0 13
-8 11 -21 -4 -20 -3 -20 12 2 15 21 17 22 35 6 15 -15 21 -15 31 -4 8 9 9 11
0 6 -6 -3 -14 -2 -17 3 -8 12 13 8 41 -7 17 -9 22 -9 26 2 6 16 22 16 55 -2
12 -7 22 -9 22 -4 0 6 9 12 19 15 15 4 19 0 15 -17 -3 -20 -3 -20 14 2 16 21
20 22 31 9 9 -12 19 -13 44 -6 40 11 40 11 31 -3 -4 -7 -4 -10 1 -6 4 4 14 3
22 -3 10 -9 13 -8 13 1 0 8 12 11 34 8 22 -2 32 0 29 7 -2 7 3 12 11 12 9 0
13 -8 11 -21 -4 -20 -3 -20 12 2 15 22 17 22 36 5 17 -15 19 -15 15 -2 -4 9
-1 16 7 16 8 0 12 -9 9 -21 -3 -20 -2 -20 14 2 16 21 20 22 31 9 9 -12 19 -13
44 -6 40 11 40 11 31 -4 -4 -6 -4 -9 1 -5 4 4 14 3 22 -3 10 -9 13 -8 13 1 0
8 12 11 34 8 22 -2 32 0 29 7 -2 7 3 12 11 12 9 0 13 -8 10 -21 -3 -20 -2 -20
14 2 16 21 20 22 31 9 9 -12 19 -13 44 -6 40 11 40 11 31 -3 -4 -7 -4 -10 1
-6 4 4 14 3 22 -3 9 -9 13 -8 13 0 0 7 17 11 43 10 23 -1 53 1 66 6 18 5 22 4
16 -6 -5 -8 -5 -11 0 -7 4 4 14 3 22 -3 10 -9 13 -8 13 1 0 9 12 11 40 7 22
-3 42 -1 46 4 3 5 -2 6 -10 3 -9 -3 -16 -2 -16 4 0 12 18 10 47 -6 17 -9 22
-9 26 2 6 16 22 16 55 -2 12 -7 22 -9 22 -4 0 6 9 12 19 15 15 4 19 0 15 -17
-3 -20 -3 -20 14 2 16 21 20 22 31 9 9 -12 19 -13 44 -6 40 11 40 11 31 -3 -4
-7 -4 -10 1 -6 4 4 14 3 22 -3 10 -9 13 -8 13 1 0 8 12 11 34 8 22 -2 32 0 29
7 -2 7 3 12 11 12 9 0 13 -8 11 -21 -4 -20 -3 -20 12 2 15 21 17 22 35 6 15
-15 21 -15 31 -4 8 9 9 11 0 6 -6 -3 -14 -2 -17 3 -8 12 13 8 41 -7 17 -9 22
-9 26 2 6 16 22 16 55 -2 14 -8 22 -9 22 -2 0 5 5 10 11 10 5 0 8 -4 4 -9 -3
-6 7 -6 27 0 41 11 41 11 32 -3 -4 -7 -4 -10 1 -6 4 4 14 3 22 -3 9 -9 13 -8
13 0 0 7 17 11 43 10 23 -1 53 1 66 6 18 5 22 4 16 -6 -5 -8 -5 -11 0 -7 4 4
14 3 22 -3 10 -9 13 -8 13 1 0 8 12 11 34 8 22 -2 32 0 29 7 -2 7 3 12 11 12
9 0 13 -8 10 -21 -3 -20 -2 -20 14 2 16 21 20 22 31 9 9 -12 19 -13 44 -6 40
11 40 11 31 -3 -4 -7 -4 -10 1 -6 4 4 14 3 22 -3 10 -9 13 -8 13 1 0 8 12 11
34 8 22 -2 32 0 29 7 -2 7 3 12 11 12 9 0 13 -8 11 -21 -4 -20 -3 -20 12 2 15
22 17 22 36 5 17 -15 19 -15 15 -2 -4 9 -1 16 7 16 8 0 12 -9 9 -21 -3 -20 -2
-20 14 2 16 21 20 22 31 9 9 -12 19 -13 44 -6 40 11 40 11 31 -3 -4 -7 -4 -10
1 -6 4 4 14 3 22 -3 10 -9 13 -8 13 1 0 8 12 11 34 8 22 -2 32 0 29 7 -2 7 3
12 11 12 9 0 13 -8 11 -21 -4 -20 -3 -20 12 2 15 21 17 22 35 6 15 -15 21 -15
31 -4 8 9 9 11 0 6 -6 -3 -14 -2 -17 3 -8 12 13 8 41 -7 17 -9 22 -9 26 2 6
16 22 16 55 -2 12 -7 22 -9 22 -4 0 6 9 12 19 15 15 4 19 0 15 -17 -3 -20 -3
-20 14 2 16 21 20 22 31 9 9 -12 19 -13 44 -6 40 11 40 11 31 -3 -4 -7 -4 -10
1 -6 4 4 14 3 22 -3 10 -9 13 -8 13 1 0 8 12 11 34 8 22 -2 32 0 29 7 -2 7 3
12 11 12 9 0 13 -8 11 -21 -4 -20 -3 -20 12 2 15 21 17 22 35 6 15 -15 21 -15
31 -4 8 9 9 11 0 6 -6 -3 -14 -2 -17 3 -8 12 13 8 41 -7 17 -9 22 -9 26 2 6
16 22 16 55 -2 12 -7 22 -8 22 -3 0 16 34 18 56 4 18 -12 22 -11 27 1 6 16 22
16 55 -2 12 -7 22 -9 22 -4 0 6 9 12 19 15 15 4 19 0 15 -17 -3 -20 -3 -20 14
2 16 21 20 22 31 9 9 -12 19 -13 44 -6 40 11 40 11 31 -3 -4 -7 -4 -10 1 -6 4
4 14 3 22 -3 10 -9 13 -8 13 1 0 8 12 11 34 8 22 -2 32 0 29 7 -2 7 3 12 11
12 9 0 13 -8 11 -21 -4 -20 -3 -20 12 2 15 21 17 22 35 6 15 -15 21 -15 31 -4
8 9 9 11 0 6 -6 -3 -14 -2 -17 3 -8 12 13 8 41 -7 17 -9 22 -9 26 2 6 16 22
16 55 -2 14 -8 22 -9 22 -2 0 5 5 10 11 10 5 0 8 -4 4 -9 -3 -6 7 -6 27 0 41
11 41 11 32 -3 -4 -7 -4 -10 1 -6 4 4 14 3 22 -3 9 -9 13 -8 13 0 0 7 17 11
43 10 23 -1 53 1 66 6 18 5 22 4 16 -6 -5 -8 -5 -11 0 -7 4 4 14 3 22 -3 10
-9 13 -8 13 1 0 9 12 11 40 7 22 -3 42 -1 46 4 3 5 -2 6 -10 3 -9 -3 -16 -2
-16 4 0 12 18 10 47 -6 17 -9 22 -9 26 2 6 16 22 16 55 -2 12 -7 22 -9 22 -4
0 6 9 12 19 15 15 4 19 0 15 -17 -3 -20 -3 -20 14 2 16 21 20 22 31 9 9 -12
19 -13 44 -6 40 11 40 11 31 -3 -4 -7 -4 -10 1 -6 4 4 14 3 22 -3 10 -9 13 -8
13 1 0 8 12 11 34 8 22 -2 32 0 29 7 -2 7 3 12 11 12 9 0 13 -8 11 -21 -4 -20
-3 -20 12 2 15 21 17 22 35 6 15 -15 21 -15 31 -4 8 9 9 11 0 6 -6 -3 -14 -2
-17 3 -8 12 13 8 41 -7 17 -9 22 -9 26 2 6 16 22 16 55 -2 14 -8 22 -9 22 -2
0 5 5 10 11 10 5 0 8 -4 4 -9 -3 -6 7 -6 27 0 41 11 41 11 32 -3 -4 -7 -4 -10
1 -6 4 4 14 3 22 -3 9 -9 13 -8 13 0 0 7 17 11 43 10 23 -1 53 1 66 6 18 5 22
4 16 -6 -5 -8 -5 -11 0 -7 4 4 14 3 22 -3 9 -9 13 -8 13 0 0 7 17 11 43 10 23
-1 53 1 66 6 18 5 22 4 16 -6 -5 -8 -5 -11 0 -7 4 4 14 3 22 -3 9 -9 13 -8 13
0 0 7 17 11 43 10 23 -1 53 1 66 6 18 5 22 4 16 -6 -5 -8 -5 -11 0 -7 4 4 14
3 22 -3 10 -9 13 -8 13 1 0 9 12 11 40 7 22 -3 42 -1 46 4 3 5 -2 6 -10 3 -9
-3 -16 -2 -16 4 0 12 18 10 47 -6 17 -9 22 -9 26 2 6 16 22 16 55 -2 12 -7 22
-9 22 -4 0 6 9 12 19 15 15 4 19 0 15 -17 -3 -20 -3 -20 14 2 16 21 20 22 31
9 9 -12 19 -13 44 -6 40 11 40 11 31 -3 -4 -7 -4 -10 1 -6 4 4 14 3 22 -3 10
-9 13 -8 13 1 0 8 12 11 34 8 22 -2 32 0 29 7 -2 7 3 12 11 12 9 0 13 -8 11
-21 -4 -20 -3 -20 12 2 15 21 17 22 35 6 15 -15 21 -15 31 -4 8 9 9 11 0 6 -6
-3 -14 -2 -17 3 -8 12 13 8 41 -7 17 -9 22 -9 26 2 6 16 22 16 55 -2 14 -8 22
-9 22 -2 0 5 5 10 11 10 5 0 8 -4 4 -9 -3 -6 7 -6 27 0 41 11 41 11 32 -4 -4
-6 -4 -9 1 -5 4 4 14 3 22 -3 9 -9 13 -8 13 0 0 7 17 11 43 10 23 -1 53 1 66
6 18 5 22 4 16 -6 -5 -8 -5 -11 0 -7 4 4 14 3 22 -3 10 -9 13 -8 13 1 0 9 12
11 40 7 22 -3 42 -1 46 4 3 5 -2 6 -10 3 -9 -3 -16 -2 -16 4 0 12 18 10 47 -6
17 -9 22 -9 26 2 6 16 22 16 55 -2 12 -7 22 -9 22 -4 0 6 9 12 19 15 15 4 19
0 15 -17 -3 -20 -3 -20 14 2 16 21 20 22 31 9 9 -12 19 -13 44 -6 40 11 40 11
31 -3 -4 -7 -4 -10 1 -6 4 4 14 3 22 -3 10 -9 13 -8 13 1 0 8 12 11 34 8 22
-2 32 0 29 7 -2 7 3 12 11 12 9 0 13 -8 11 -21 -4 -20 -3 -20 12 2 15 21 17
22 35 6 15 -15 21 -15 31 -4 8 9 9 11 0 6 -6 -3 -14 -2 -17 3 -8 12 13 8 41
-7 17 -9 22 -9 26 2 6 16 22 16 55 -2 12 -7 22 -8 22 -3 0 16 34 18 56 4 18
-12 22 -11 27 1 6 16 22 16 55 -2 12 -7 22 -9 22 -4 0 6 9 12 19 15 15 4 19 0
15 -17 -3 -20 -3 -20 14 2 16 21 20 22 31 9 9 -12 19 -13 44 -6 40 11 40 11
31 -4 -4 -6 -4 -9 1 -5 4 4 14 3 22 -3 10 -9 13 -8 13 1 0 8 12 11 34 8 22 -2
32 0 29 7 -2 7 3 12 11 12 9 0 13 -8 11 -21 -4 -20 -3 -20 12 2 15 21 17 22
35 6 15 -15 21 -15 31 -4 8 9 9 11 0 6 -6 -3 -14 -2 -17 3 -8 12 13 8 41 -7
17 -9 22 -9 26 2 6 16 22 16 55 -2 12 -7 22 -9 22 -4 0 6 9 12 19 15 15 4 19
0 15 -17 -3 -20 -3 -20 14 2 16 21 20 22 31 9 9 -12 19 -13 44 -6 40 11 40 11
31 -3 -4 -7 -4 -10 1 -6 4 4 14 3 22 -3 10 -9 13 -8 13 1 0 8 12 11 34 8 22
-2 32 0 29 7 -2 7 3 12 11 12 9 0 13 -8 11 -21 -4 -20 -3 -20 12 2 15 22 17
22 36 5 17 -15 19 -15 15 -2 -4 9 -1 16 7 16 8 0 12 -9 9 -21 -3 -20 -2 -20
14 2 16 21 20 22 31 9 9 -12 19 -13 44 -6 40 11 40 11 31 -3 -4 -7 -4 -10 1
-6 4 4 14 3 22 -3 10 -9 13 -8 13 1 0 8 12 11 34 8 22 -2 32 0 29 7 -2 7 3 12
11 12 9 0 13 -8 10 -21 -3 -20 -2 -20 14 2 16 21 20 22 31 9 9 -12 19 -13 44
-6 40 11 40 11 31 -3 -4 -7 -4 -10 1 -6 4 4 14 3 22 -3 9 -9 13 -8 13 0 0 7
17 11 43 10 23 -1 53 1 66 6 18 5 22 4 16 -6 -5 -8 -5 -11 0 -7 4 4 14 3 22
-3 10 -9 13 -8 13 1 0 9 12 11 40 7 22 -3 42 -1 46 4 3 5 -2 6 -10 3 -9 -3
-16 -2 -16 4 0 12 18 10 47 -6 17 -9 22 -9 26 2 6 16 22 16 55 -2 12 -7 22 -9
22 -4 0 6 9 12 19 15 15 4 19 0 15 -17 -3 -20 -3 -20 14 2 16 21 20 22 31 9 9
-12 19 -13 44 -6 39 11 39 11 33 0 -4 -5 2 -8 11 -6 10 1 24 -3 32 -9 12 -9
13 -8 7 2 -6 11 0 12 28 8 22 -4 36 -2 36 5 0 5 -5 7 -12 3 -7 -5 -8 -3 -4 5
6 9 13 8 29 -6 18 -16 20 -16 14 -1 -6 17 15 20 30 3 4 -4 2 -5 -4 -1 -9 5
-11 2 -6 -9 4 -12 8 -13 13 -4 5 6 15 9 24 6 10 -4 16 -1 16 9 0 8 4 13 10 9
5 -3 7 -13 4 -23 -4 -10 -3 -13 3 -6 4 6 15 13 23 16 16 5 22 68 5 68 -5 0 -3
5 5 10 13 9 13 10 0 10 -9 0 -11 3 -5 8 14 10 15 42 1 42 -6 0 -4 5 4 10 10 6
11 10 3 10 -7 0 -13 5 -13 11 0 5 6 7 13 3 8 -5 8 -2 -2 9 -7 9 -9 17 -4 17 5
0 9 15 9 34 0 19 -4 32 -9 29 -5 -3 -1 6 8 21 15 22 15 25 2 20 -8 -3 -18 0
-23 7 -4 8 -3 10 4 5 13 -8 13 -7 16 42 1 17 -3 32 -9 32 -5 0 -3 5 5 10 13 9
13 10 0 10 -9 0 -11 3 -5 8 14 10 15 42 1 42 -6 0 -4 5 4 10 10 6 11 10 3 10
-7 0 -13 5 -13 11 0 5 6 7 13 3 8 -5 8 -2 -2 9 -7 9 -9 17 -4 17 5 0 9 15 9
34 0 19 -4 32 -9 29 -5 -3 -1 6 8 21 15 22 15 25 2 20 -8 -3 -18 0 -23 7 -4 8
-3 10 4 5 13 -8 13 -7 16 42 1 17 -3 32 -9 32 -5 0 -3 5 5 10 13 9 13 10 0 10
-9 0 -11 3 -5 8 14 10 15 42 1 42 -6 0 -4 5 4 10 10 6 11 10 3 10 -7 0 -13 5
-13 11 0 5 6 7 13 3 8 -5 8 -2 -2 9 -7 9 -9 17 -4 17 5 0 9 15 9 34 0 19 -4
32 -9 29 -5 -3 -1 6 8 21 15 22 15 25 2 20 -8 -3 -18 0 -23 7 -4 8 -3 10 4 5
13 -8 13 -7 16 41 1 18 -3 33 -9 33 -5 0 -3 5 5 10 13 9 13 10 0 10 -9 0 -11
3 -5 8 14 10 15 42 1 42 -6 0 -4 5 4 10 10 6 11 10 3 10 -7 0 -13 5 -13 11 0
5 6 7 13 3 8 -5 8 -2 -2 9 -7 9 -9 17 -4 17 5 0 9 15 9 34 0 19 -4 32 -9 29
-5 -3 -1 6 8 21 15 22 15 25 2 20 -8 -3 -18 0 -23 7 -4 8 -3 10 4 5 13 -8 13
-7 16 42 1 17 -3 32 -9 32 -5 0 -3 5 5 10 13 9 13 10 0 10 -9 0 -11 3 -5 8 14
10 15 42 1 42 -6 0 -4 5 4 10 10 6 11 10 3 10 -7 0 -13 5 -13 11 0 5 6 7 13 3
8 -5 8 -2 -2 9 -7 9 -9 17 -4 17 5 0 9 15 9 34 0 19 -4 32 -9 29 -5 -3 -1 6 8
21 15 22 15 25 2 20 -8 -3 -18 0 -23 7 -4 8 -3 10 4 5 13 -8 13 -7 16 42 1 17
-3 32 -9 32 -5 0 -3 5 5 10 13 9 13 10 0 10 -9 0 -11 3 -5 8 14 10 15 42 1 42
-6 0 -4 5 4 10 10 6 11 10 3 10 -7 0 -13 5 -13 11 0 5 6 7 13 3 8 -5 8 -2 -2
9 -7 9 -9 17 -4 17 5 0 9 15 9 34 0 19 -4 32 -9 29 -5 -3 -1 6 8 21 15 22 15
25 2 20 -8 -3 -18 0 -23 7 -4 8 -3 10 4 5 13 -8 13 -7 16 42 1 17 -3 32 -9 32
-5 0 -3 5 5 10 13 9 13 10 0 10 -9 0 -11 3 -5 8 14 10 15 42 1 42 -6 0 -4 5 4
10 10 6 11 10 3 10 -7 0 -13 5 -13 11 0 5 6 7 13 3 8 -5 8 -2 -2 9 -7 9 -9 17
-4 17 5 0 9 15 9 34 0 19 -4 32 -9 29 -5 -3 -1 6 8 21 15 22 15 25 2 20 -8 -3
-18 0 -23 7 -4 8 -3 10 4 5 13 -8 13 -7 16 42 1 17 -3 32 -9 32 -5 0 -3 5 5
10 13 9 13 10 0 10 -9 0 -11 3 -5 8 14 10 15 42 1 42 -6 0 -4 5 4 10 10 6 11
10 3 10 -7 0 -13 5 -13 11 0 5 6 7 13 3 8 -5 8 -2 -2 9 -7 9 -9 17 -4 17 5 0
9 15 9 34 0 19 -4 32 -9 29 -5 -3 -1 6 8 21 15 22 15 25 2 20 -8 -3 -18 0 -23
7 -4 8 -3 10 4 5 13 -8 13 -7 16 42 1 17 -3 32 -9 32 -5 0 -3 5 5 10 13 9 13
10 0 10 -9 0 -11 3 -5 8 14 10 15 42 1 42 -6 0 -4 5 4 10 10 6 11 10 3 10 -7
0 -13 5 -13 11 0 5 6 7 13 3 8 -5 8 -2 -2 9 -7 9 -9 17 -4 17 5 0 9 15 9 34 0
19 -4 32 -9 29 -5 -3 -1 6 8 21 15 22 15 25 2 20 -8 -3 -18 0 -23 7 -4 8 -3
10 4 5 13 -8 13 -7 16 42 1 17 -3 32 -9 32 -5 0 -3 5 5 10 13 9 13 10 0 10 -9
0 -11 3 -5 8 14 10 15 42 1 42 -6 0 -4 5 4 10 10 6 11 10 3 10 -7 0 -13 5 -13
11 0 5 6 7 13 3 8 -5 8 -2 -2 9 -7 9 -9 17 -4 17 5 0 9 15 9 34 0 19 -4 32 -9
29 -5 -3 -1 6 8 21 15 22 15 25 2 20 -8 -3 -18 0 -23 7 -4 8 -3 10 4 5 13 -8
13 -7 16 42 1 17 -3 32 -9 32 -5 0 -3 5 5 10 13 9 13 10 0 10 -9 0 -11 3 -5 8
14 10 15 42 1 42 -6 0 -4 5 4 10 10 6 11 10 3 10 -7 0 -13 5 -13 11 0 5 6 7
13 3 8 -5 8 -2 -2 9 -7 9 -9 17 -4 17 5 0 9 15 9 34 0 19 -4 32 -9 29 -5 -3
-1 6 8 21 15 22 15 25 2 20 -8 -3 -18 0 -23 7 -4 8 -3 10 4 5 13 -8 13 -7 16
42 1 17 -3 32 -9 32 -5 0 -3 5 5 10 13 9 13 10 0 10 -9 0 -11 3 -5 8 14 10 15
42 1 42 -6 0 -4 5 4 10 10 6 11 10 3 10 -7 0 -13 5 -13 11 0 5 6 7 13 3 8 -5
8 -2 -2 9 -7 9 -9 17 -4 17 5 0 9 15 9 34 0 19 -4 32 -9 29 -5 -3 -1 6 8 21
15 22 15 25 2 20 -8 -3 -18 0 -23 7 -4 8 -3 10 4 5 13 -8 13 -7 16 42 1 17 -3
32 -9 32 -5 0 -3 5 5 10 13 9 13 10 0 10 -9 0 -11 3 -5 8 14 10 15 42 1 42 -6
0 -4 5 4 10 10 6 11 10 3 10 -7 0 -13 5 -13 11 0 5 6 7 13 3 8 -5 8 -2 -2 9
-7 9 -9 17 -4 17 5 0 9 15 9 34 0 19 -4 32 -9 29 -5 -3 -1 6 8 21 15 22 15 25
2 20 -8 -3 -18 0 -23 7 -4 8 -3 10 4 5 13 -8 13 -7 16 42 1 17 -3 32 -9 32 -5
0 -3 5 5 10 13 9 13 10 0 10 -9 0 -11 3 -5 8 14 10 15 42 1 42 -6 0 -4 5 4 10
10 6 11 10 3 10 -7 0 -13 5 -13 11 0 5 6 7 13 3 8 -5 8 -2 -2 9 -7 9 -9 17 -4
17 5 0 9 15 9 34 0 19 -4 32 -9 29 -5 -3 -1 6 8 21 15 22 15 25 2 20 -8 -3
-18 0 -23 7 -4 8 -3 10 4 5 13 -8 13 -7 16 42 1 17 -3 32 -9 32 -5 0 -3 5 5
10 13 9 13 10 0 10 -9 0 -11 3 -5 8 14 10 15 42 1 42 -6 0 -4 5 4 10 10 6 11
10 3 10 -7 0 -13 5 -13 11 0 5 6 7 13 3 8 -5 8 -2 -2 9 -7 9 -9 17 -4 17 5 0
9 15 9 34 0 19 -4 32 -9 29 -5 -3 -1 6 8 21 15 22 15 25 2 20 -8 -3 -18 0 -23
7 -4 8 -3 10 4 5 13 -8 13 -7 16 42 1 17 -3 32 -9 32 -5 0 -3 5 5 10 13 9 13
10 0 10 -9 0 -11 3 -5 8 14 10 15 42 1 42 -6 0 -4 5 4 10 10 6 11 10 3 10 -7
0 -13 5 -13 11 0 5 6 7 13 3 8 -5 8 -2 -2 9 -7 9 -9 17 -4 17 5 0 9 15 9 34 0
19 -4 32 -9 29 -5 -3 -1 6 8 21 15 22 15 25 2 20 -8 -3 -18 0 -23 7 -4 8 -3
10 4 5 13 -8 13 -7 16 42 1 17 -3 32 -9 32 -5 0 -3 5 5 10 13 9 13 10 0 10 -9
0 -11 3 -5 8 14 10 15 42 1 42 -6 0 -4 5 4 10 10 6 11 10 3 10 -7 0 -13 5 -13
11 0 5 6 7 13 3 8 -5 8 -2 -2 9 -7 9 -9 17 -4 17 5 0 9 15 9 34 0 19 -4 32 -9
29 -5 -3 -1 6 8 21 15 22 15 25 2 20 -8 -3 -18 0 -23 7 -4 8 -3 10 4 5 13 -8
13 -7 16 42 1 17 -3 32 -9 32 -5 0 -3 5 5 10 13 9 13 10 0 10 -9 0 -11 3 -5 8
14 10 15 42 1 42 -6 0 -4 5 4 10 10 6 11 10 3 10 -7 0 -13 5 -13 11 0 5 6 7
13 3 8 -5 8 -2 -2 9 -7 9 -9 17 -4 17 5 0 9 15 9 34 0 19 -4 32 -9 29 -5 -3
-1 6 8 21 15 22 15 25 2 20 -8 -3 -18 0 -23 7 -4 8 -3 10 4 5 13 -8 13 -7 16
42 1 17 -3 32 -9 32 -5 0 -3 5 5 10 13 9 13 10 0 10 -9 0 -11 3 -5 8 14 10 15
42 1 42 -6 0 -4 5 4 10 10 6 11 10 3 10 -7 0 -13 5 -13 11 0 5 6 7 13 3 8 -5
8 -2 -2 9 -7 9 -9 17 -4 17 5 0 9 15 9 34 0 19 -4 32 -9 29 -5 -3 -1 6 8 21
15 22 15 25 2 20 -8 -3 -18 0 -23 7 -4 8 -3 10 4 5 13 -8 13 -7 16 42 1 17 -3
32 -9 32 -5 0 -3 5 5 10 13 9 13 10 0 10 -9 0 -11 3 -5 8 14 10 15 42 1 42 -6
0 -4 5 4 10 10 6 11 10 3 10 -7 0 -13 5 -13 11 0 5 6 7 13 3 8 -5 8 -2 -2 9
-7 9 -9 17 -4 17 5 0 9 15 9 34 0 19 -4 32 -9 29 -5 -3 -1 6 8 21 15 22 15 25
2 20 -8 -3 -18 0 -23 7 -4 8 -3 10 4 5 7 -4 13 -2 13 3 1 6 2 17 3 24 1 6 -2
18 -7 25 -6 7 -6 12 0 12 5 0 9 11 9 24 0 14 -4 22 -8 20 -4 -3 -8 -1 -8 5 0
5 4 12 9 15 5 4 8 14 7 24 -3 16 -265 17 -5243 18 l-5240 1 0 -3283z m10458
3023 c-10 -9 -11 -8 -5 6 3 10 9 15 12 12 3 -3 0 -11 -7 -18z m0 -320 c-10 -9
-11 -8 -5 6 3 10 9 15 12 12 3 -3 0 -11 -7 -18z m0 -320 c-10 -9 -11 -8 -5 6
3 10 9 15 12 12 3 -3 0 -11 -7 -18z m0 -320 c-10 -9 -11 -8 -5 6 3 10 9 15 12
12 3 -3 0 -11 -7 -18z m0 -320 c-10 -9 -11 -8 -5 6 3 10 9 15 12 12 3 -3 0
-11 -7 -18z m0 -320 c-10 -9 -11 -8 -5 6 3 10 9 15 12 12 3 -3 0 -11 -7 -18z
m0 -320 c-10 -9 -11 -8 -5 6 3 10 9 15 12 12 3 -3 0 -11 -7 -18z m0 -320 c-10
-9 -11 -8 -5 6 3 10 9 15 12 12 3 -3 0 -11 -7 -18z m0 -320 c-10 -9 -11 -8 -5
6 3 10 9 15 12 12 3 -3 0 -11 -7 -18z m0 -320 c-10 -9 -11 -8 -5 6 3 10 9 15
12 12 3 -3 0 -11 -7 -18z m0 -320 c-10 -9 -11 -8 -5 6 3 10 9 15 12 12 3 -3 0
-11 -7 -18z m0 -320 c-10 -9 -11 -8 -5 6 3 10 9 15 12 12 3 -3 0 -11 -7 -18z
m0 -320 c-10 -9 -11 -8 -5 6 3 10 9 15 12 12 3 -3 0 -11 -7 -18z m0 -320 c-10
-9 -11 -8 -5 6 3 10 9 15 12 12 3 -3 0 -11 -7 -18z m0 -320 c-10 -9 -11 -8 -5
6 3 10 9 15 12 12 3 -3 0 -11 -7 -18z m0 -320 c-10 -9 -11 -8 -5 6 3 10 9 15
12 12 3 -3 0 -11 -7 -18z m0 -320 c-10 -9 -11 -8 -5 6 3 10 9 15 12 12 3 -3 0
-11 -7 -18z m0 -320 c-10 -9 -11 -8 -5 6 3 10 9 15 12 12 3 -3 0 -11 -7 -18z
m0 -320 c-10 -9 -11 -8 -5 6 3 10 9 15 12 12 3 -3 0 -11 -7 -18z m0 -320 c-10
-9 -11 -8 -5 6 3 10 9 15 12 12 3 -3 0 -11 -7 -18z m-10136 -217 c3 -5 1 -10
-4 -10 -6 0 -11 5 -11 10 0 6 2 10 4 10 3 0 8 -4 11 -10z m640 0 c3 -5 1 -10
-4 -10 -6 0 -11 5 -11 10 0 6 2 10 4 10 3 0 8 -4 11 -10z m480 0 c3 -5 1 -10
-4 -10 -6 0 -11 5 -11 10 0 6 2 10 4 10 3 0 8 -4 11 -10z m320 0 c3 -5 1 -10
-4 -10 -6 0 -11 5 -11 10 0 6 2 10 4 10 3 0 8 -4 11 -10z m240 0 c3 -5 1 -10
-4 -10 -6 0 -11 5 -11 10 0 6 2 10 4 10 3 0 8 -4 11 -10z m160 0 c3 -5 1 -10
-4 -10 -6 0 -11 5 -11 10 0 6 2 10 4 10 3 0 8 -4 11 -10z m400 0 c3 -5 1 -10
-4 -10 -6 0 -11 5 -11 10 0 6 2 10 4 10 3 0 8 -4 11 -10z m400 0 c3 -5 1 -10
-4 -10 -6 0 -11 5 -11 10 0 6 2 10 4 10 3 0 8 -4 11 -10z m160 0 c3 -5 1 -10
-4 -10 -6 0 -11 5 -11 10 0 6 2 10 4 10 3 0 8 -4 11 -10z m240 0 c3 -5 1 -10
-4 -10 -6 0 -11 5 -11 10 0 6 2 10 4 10 3 0 8 -4 11 -10z m320 0 c3 -5 1 -10
-4 -10 -6 0 -11 5 -11 10 0 6 2 10 4 10 3 0 8 -4 11 -10z m480 0 c3 -5 1 -10
-4 -10 -6 0 -11 5 -11 10 0 6 2 10 4 10 3 0 8 -4 11 -10z m640 0 c3 -5 1 -10
-4 -10 -6 0 -11 5 -11 10 0 6 2 10 4 10 3 0 8 -4 11 -10z m400 0 c3 -5 1 -10
-4 -10 -6 0 -11 5 -11 10 0 6 2 10 4 10 3 0 8 -4 11 -10z m160 0 c3 -5 1 -10
-4 -10 -6 0 -11 5 -11 10 0 6 2 10 4 10 3 0 8 -4 11 -10z m400 0 c3 -5 1 -10
-4 -10 -6 0 -11 5 -11 10 0 6 2 10 4 10 3 0 8 -4 11 -10z m400 0 c3 -5 1 -10
-4 -10 -6 0 -11 5 -11 10 0 6 2 10 4 10 3 0 8 -4 11 -10z m160 0 c3 -5 1 -10
-4 -10 -6 0 -11 5 -11 10 0 6 2 10 4 10 3 0 8 -4 11 -10z m160 0 c3 -5 1 -10
-4 -10 -6 0 -11 5 -11 10 0 6 2 10 4 10 3 0 8 -4 11 -10z m160 0 c3 -5 1 -10
-4 -10 -6 0 -11 5 -11 10 0 6 2 10 4 10 3 0 8 -4 11 -10z m400 0 c3 -5 1 -10
-4 -10 -6 0 -11 5 -11 10 0 6 2 10 4 10 3 0 8 -4 11 -10z m400 0 c3 -5 1 -10
-4 -10 -6 0 -11 5 -11 10 0 6 2 10 4 10 3 0 8 -4 11 -10z m160 0 c3 -5 1 -10
-4 -10 -6 0 -11 5 -11 10 0 6 2 10 4 10 3 0 8 -4 11 -10z m400 0 c3 -5 1 -10
-4 -10 -6 0 -11 5 -11 10 0 6 2 10 4 10 3 0 8 -4 11 -10z m640 0 c3 -5 1 -10
-4 -10 -6 0 -11 5 -11 10 0 6 2 10 4 10 3 0 8 -4 11 -10z m480 0 c3 -5 1 -10
-4 -10 -6 0 -11 5 -11 10 0 6 2 10 4 10 3 0 8 -4 11 -10z m320 0 c3 -5 1 -10
-4 -10 -6 0 -11 5 -11 10 0 6 2 10 4 10 3 0 8 -4 11 -10z m240 0 c3 -5 1 -10
-4 -10 -6 0 -11 5 -11 10 0 6 2 10 4 10 3 0 8 -4 11 -10z m160 0 c3 -5 1 -10
-4 -10 -6 0 -11 5 -11 10 0 6 2 10 4 10 3 0 8 -4 11 -10z"/>
<path d="M70 1969 c0 -4 6 -9 13 -12 8 -3 14 0 14 7 0 7 -6 13 -14 13 -7 0
-13 -4 -13 -8z"/>
<path d="M550 1969 c0 -4 6 -9 13 -12 8 -3 14 0 14 7 0 7 -6 13 -14 13 -7 0
-13 -4 -13 -8z"/>
<path d="M640 1970 c-9 -6 -10 -10 -3 -10 6 0 15 5 18 10 8 12 4 12 -15 0z"/>
<path d="M710 1969 c0 -4 6 -9 13 -12 8 -3 14 0 14 7 0 7 -6 13 -14 13 -7 0
-13 -4 -13 -8z"/>
<path d="M1190 1969 c0 -4 6 -9 13 -12 8 -3 14 0 14 7 0 7 -6 13 -14 13 -7 0
-13 -4 -13 -8z"/>
<path d="M2310 1969 c0 -4 6 -9 13 -12 8 -3 14 0 14 7 0 7 -6 13 -14 13 -7 0
-13 -4 -13 -8z"/>
<path d="M2790 1969 c0 -4 6 -9 13 -12 8 -3 14 0 14 7 0 7 -6 13 -14 13 -7 0
-13 -4 -13 -8z"/>
<path d="M3910 1969 c0 -4 6 -9 13 -12 8 -3 14 0 14 7 0 7 -6 13 -14 13 -7 0
-13 -4 -13 -8z"/>
<path d="M4390 1969 c0 -4 6 -9 13 -12 8 -3 14 0 14 7 0 7 -6 13 -14 13 -7 0
-13 -4 -13 -8z"/>
<path d="M4480 1970 c-9 -6 -10 -10 -3 -10 6 0 15 5 18 10 8 12 4 12 -15 0z"/>
<path d="M4550 1969 c0 -4 6 -9 13 -12 8 -3 14 0 14 7 0 7 -6 13 -14 13 -7 0
-13 -4 -13 -8z"/>
<path d="M5030 1969 c0 -4 6 -9 13 -12 8 -3 14 0 14 7 0 7 -6 13 -14 13 -7 0
-13 -4 -13 -8z"/>
<path d="M5510 1969 c0 -4 6 -9 13 -12 8 -3 14 0 14 7 0 7 -6 13 -14 13 -7 0
-13 -4 -13 -8z"/>
<path d="M5990 1969 c0 -4 6 -9 13 -12 8 -3 14 0 14 7 0 7 -6 13 -14 13 -7 0
-13 -4 -13 -8z"/>
<path d="M6790 1969 c0 -4 6 -9 13 -12 8 -3 14 0 14 7 0 7 -6 13 -14 13 -7 0
-13 -4 -13 -8z"/>
<path d="M7270 1969 c0 -4 6 -9 13 -12 8 -3 14 0 14 7 0 7 -6 13 -14 13 -7 0
-13 -4 -13 -8z"/>
<path d="M7750 1969 c0 -4 6 -9 13 -12 8 -3 14 0 14 7 0 7 -6 13 -14 13 -7 0
-13 -4 -13 -8z"/>
<path d="M8230 1969 c0 -4 6 -9 13 -12 8 -3 14 0 14 7 0 7 -6 13 -14 13 -7 0
-13 -4 -13 -8z"/>
<path d="M8320 1970 c-9 -6 -10 -10 -3 -10 6 0 15 5 18 10 8 12 4 12 -15 0z"/>
<path d="M8390 1969 c0 -4 6 -9 13 -12 8 -3 14 0 14 7 0 7 -6 13 -14 13 -7 0
-13 -4 -13 -8z"/>
<path d="M8870 1969 c0 -4 6 -9 13 -12 8 -3 14 0 14 7 0 7 -6 13 -14 13 -7 0
-13 -4 -13 -8z"/>
<path d="M9990 1969 c0 -4 6 -9 13 -12 8 -3 14 0 14 7 0 7 -6 13 -14 13 -7 0
-13 -4 -13 -8z"/>
</g>
</svg>
