<svg xmlns="http://www.w3.org/2000/svg" xmlns:xlink="http://www.w3.org/1999/xlink" xmlns:fi="http://pattern.flaticon.com/" x="0" y="0" width="1980" height="400" viewBox="0 0 2310 466.6666666666667"><rect x="0px" y="0px" width="100%" height="100%" opacity="0" fill="#ffffff"/><defs><g transform="matrix(0.06430365890264511 0 0 0.06430365890264511 105.51188045404376 32.53827138528857)" id="L1_0"><path d="M481.091,27.937H30.909C13.866,27.937,0,41.803,0,58.846v310.819c0,17.043,13.866,30.909,30.909,30.909h154.26v22.49    c0,20.617-16.774,37.391-37.391,37.391h-33.997c-6.518,0-11.803,5.284-11.803,11.803c0,6.519,5.285,11.803,11.803,11.803h284.436    c6.518,0,11.803-5.284,11.803-11.803c0-6.519-5.285-11.803-11.803-11.803h-33.998c-20.617,0-37.391-16.774-37.391-37.391v-22.489    h154.26c17.043,0,30.91-13.866,30.91-30.909V58.846C512,41.803,498.134,27.937,481.091,27.937z M195.92,460.457    c8.046-10.336,12.857-23.308,12.857-37.391v-22.49h94.447v22.49c0,14.083,4.811,27.056,12.857,37.391H195.92z M488.394,369.666    c0,4.027-3.276,7.304-7.304,7.304H30.909c-4.027,0-7.304-3.276-7.304-7.304v-62.033h464.789V369.666z M488.394,284.026H23.606    V58.846c0-4.027,3.276-7.304,7.304-7.304h450.18c4.027,0,7.305,3.276,7.305,7.304V284.026z"/><circle cx="256" cy="342" r="12"/><path d="M276.238,109.254c-4.61-4.609-12.081-4.609-16.693,0l-83.414,83.414c-4.609,4.609-4.609,12.083,0,16.693    c2.306,2.305,5.325,3.457,8.347,3.457c3.022,0,6.041-1.152,8.346-3.457l83.414-83.414    C280.847,121.338,280.847,113.864,276.238,109.254z"/><path d="M325.678,157.593c-4.608-4.609-12.079-4.609-16.692-0.001l-33.23,33.228c-4.609,4.61-4.609,12.084,0,16.693    c2.305,2.305,5.325,3.457,8.346,3.457c3.02,0,6.041-1.152,8.346-3.457l33.23-33.228    C330.287,169.676,330.287,162.202,325.678,157.593z"/></g><g transform="matrix(0.05800485317263695 -0.008286407393034047 0.008286407393034047 0.05800485317263695 154.02943729518822 63.272077880421655)" id="L1_1"><path d="M328.844,368.733c-5.383-3.235-10.908-6.487-16.433-9.675c1.299-11.07,1.302-22.268,0.006-33.316    c5.546-3.2,11.068-6.45,16.425-9.671c9.02-5.42,12.78-16.856,8.744-26.603c0,0,0,0-0.001-0.001l-11.771-28.418    c-4.037-9.744-14.777-15.175-24.993-12.63c-6.071,1.511-12.274,3.118-18.455,4.776c-6.901-8.732-14.82-16.649-23.563-23.554    c1.658-6.182,3.266-12.388,4.778-18.461c2.545-10.211-2.885-20.955-12.629-24.992l-28.418-11.771    c-9.744-4.038-21.183-0.281-26.605,8.741c-3.229,5.374-6.482,10.899-9.674,16.433c-11.067-1.299-22.263-1.302-33.316-0.007    c-3.202-5.551-6.453-11.074-9.67-16.426c-5.424-9.02-16.86-12.778-26.605-8.741l-28.418,11.771    c-9.742,4.036-15.174,14.781-12.629,24.992c1.515,6.085,3.121,12.289,4.776,18.455c-8.731,6.899-16.649,14.82-23.553,23.563    c-6.196-1.663-12.402-3.269-18.463-4.779c-10.214-2.547-20.956,2.888-24.993,12.631L1.615,289.467    c-4.035,9.745-0.276,21.182,8.742,26.602c5.375,3.23,10.9,6.482,16.433,9.675c-1.298,11.066-1.301,22.262-0.006,33.316    c-5.538,3.195-11.06,6.446-16.429,9.672c-9.018,5.421-12.777,16.857-8.741,26.603l11.772,28.418    c4.036,9.743,14.775,15.176,24.993,12.63c6.064-1.51,12.268-3.116,18.453-4.776c6.901,8.731,14.82,16.647,23.563,23.553    c-1.66,6.189-3.267,12.395-4.778,18.461c-2.545,10.211,2.885,20.956,12.629,24.992l28.419,11.772    c2.64,1.093,5.403,1.615,8.137,1.615c7.362,0,14.514-3.779,18.471-10.355c3.205-5.333,6.456-10.856,9.674-16.432    c11.065,1.297,22.264,1.299,33.316,0.006c3.179,5.512,6.43,11.034,9.67,16.427c5.422,9.02,16.858,12.777,26.605,8.741    l28.418-11.771c9.742-4.036,15.174-14.781,12.629-24.992c-1.503-6.033-3.109-12.237-4.776-18.455    c8.729-6.899,16.648-14.819,23.554-23.562c6.178,1.657,12.384,3.263,18.46,4.777c10.211,2.547,20.956-2.884,24.993-12.63    l11.771-28.419C341.621,385.59,337.862,374.153,328.844,368.733z M305.116,413.834c-5.837-1.462-11.787-3.008-17.703-4.602    c-8.376-2.253-17.215,0.692-22.519,7.507c-6.096,7.83-13.151,14.886-20.968,20.973c-6.807,5.302-9.748,14.138-7.493,22.509    c1.603,5.954,3.148,11.9,4.601,17.696l-26.122,10.819c-3.107-5.184-6.218-10.481-9.259-15.765    c-4.327-7.514-12.655-11.678-21.216-10.618c-9.831,1.221-19.81,1.22-29.654-0.005c-8.585-1.066-16.906,3.098-21.232,10.614    c-3.078,5.344-6.19,10.644-9.263,15.773l-26.122-10.82c1.461-5.827,3.007-11.776,4.603-17.701    c2.255-8.375-0.692-17.215-7.507-22.52c-7.83-6.095-14.885-13.149-20.973-20.965c-5.3-6.809-14.136-9.749-22.51-7.495    c-5.923,1.595-11.87,3.141-17.695,4.601l-10.82-26.121c5.16-3.094,10.459-6.205,15.765-9.26    c7.515-4.327,11.683-12.653,10.619-21.215c-1.223-9.832-1.22-19.81,0.003-29.655c1.068-8.57-3.097-16.905-10.616-21.233    c-5.304-3.054-10.604-6.166-15.772-9.265l10.82-26.121c5.82,1.459,11.768,3.005,17.702,4.602    c8.372,2.256,17.212-0.692,22.52-7.507c6.095-7.83,13.15-14.886,20.965-20.972c6.808-5.301,9.749-14.138,7.494-22.512    c-1.59-5.904-3.136-11.85-4.601-17.694l26.122-10.819c3.084,5.146,6.196,10.444,9.259,15.765    c4.328,7.515,12.663,11.689,21.216,10.618c9.827-1.223,19.804-1.223,29.657,0.005c8.575,1.068,16.905-3.102,21.231-10.617    c3.053-5.304,6.166-10.604,9.262-15.771l26.122,10.819c-1.462,5.833-3.008,11.782-4.603,17.703    c-2.255,8.374,0.692,17.214,7.507,22.519c7.829,6.095,14.885,13.149,20.973,20.965c5.3,6.807,14.133,9.748,22.511,7.494    c5.919-1.594,11.865-3.14,17.694-4.601l10.819,26.121c-5.153,3.089-10.451,6.2-15.765,9.26    c-7.515,4.327-11.684,12.654-10.619,21.216c1.223,9.827,1.221,19.806-0.005,29.657c-1.066,8.571,3.101,16.904,10.617,21.231    c5.296,3.049,10.596,6.161,15.772,9.263L305.116,413.834z"/><path d="M241.762,312.511c0,0,0,0-0.001-0.001c-16.48-39.789-62.256-58.752-102.051-42.271    C99.922,286.721,80.958,332.501,97.44,372.29c7.983,19.276,22.997,34.287,42.271,42.272c9.637,3.991,19.763,5.987,29.889,5.987    s20.252-1.996,29.891-5.987C239.279,398.08,258.242,352.301,241.762,312.511z M190.72,393.388c-13.618,5.641-28.617,5.64-42.239,0    c-13.618-5.641-24.225-16.249-29.867-29.868c-11.647-28.114,1.753-60.462,29.868-72.107c6.885-2.852,14.021-4.202,21.047-4.202    c21.667,0,42.265,12.84,51.06,34.07C232.234,349.395,218.834,381.742,190.72,393.388z"/><path d="M496.553,100.936c-3.956-0.592-8.019-1.167-12.111-1.713c-2.062-6.857-4.816-13.505-8.214-19.819    c2.504-3.275,4.972-6.556,7.357-9.779c5.295-7.161,4.529-17.317-1.78-23.623l-15.808-15.806    c-6.309-6.31-16.465-7.075-23.624-1.778c-3.234,2.393-6.514,4.86-9.779,7.355c-6.313-3.398-12.96-6.152-19.819-8.215    c-0.547-4.092-1.12-8.155-1.712-12.11C409.746,6.642,402.024,0,393.102,0h-22.356c-8.922,0-16.644,6.642-17.961,15.447    c-0.591,3.953-1.165,8.017-1.712,12.11c-6.859,2.063-13.507,4.817-19.819,8.215c-3.263-2.496-6.545-4.964-9.778-7.355    c-7.161-5.297-17.317-4.532-23.624,1.777l-15.806,15.805c-6.31,6.308-7.077,16.465-1.78,23.627    c2.383,3.222,4.851,6.504,7.354,9.778c-3.396,6.313-6.151,12.96-8.214,19.819c-4.091,0.547-8.155,1.121-12.11,1.713    c-8.807,1.318-15.449,9.039-15.449,17.962v22.355c0,8.922,6.64,16.644,15.447,17.962c3.956,0.592,8.019,1.167,12.111,1.713    c2.063,6.858,4.817,13.505,8.214,19.819c-2.501,3.272-4.969,6.552-7.357,9.779c-5.294,7.159-4.529,17.317,1.78,23.622    l15.808,15.808c6.308,6.31,16.464,7.074,23.624,1.778c3.234-2.391,6.514-4.86,9.778-7.354c6.315,3.398,12.963,6.152,19.82,8.214    c0.545,4.091,1.12,8.155,1.712,12.111c1.318,8.806,9.04,15.448,17.962,15.448h22.356c8.922,0,16.644-6.64,17.961-15.449    c0.591-3.956,1.165-8.019,1.712-12.111c6.858-2.061,13.505-4.817,19.819-8.215c3.263,2.496,6.545,4.964,9.778,7.356    c7.159,5.297,17.317,4.532,23.624-1.777l15.808-15.806c6.309-6.308,7.075-16.465,1.778-23.626    c-2.386-3.226-4.854-6.508-7.354-9.777c3.396-6.313,6.151-12.959,8.214-19.819c4.091-0.547,8.155-1.121,12.11-1.713    c8.807-1.318,15.449-9.039,15.449-17.962v-22.355C512,109.976,505.359,102.254,496.553,100.936z M490.228,138.142    c-3.592,0.521-7.257,1.027-10.934,1.506c-7.273,0.949-13.227,6.111-15.165,13.149c-1.857,6.739-4.552,13.242-8.009,19.328    c-3.611,6.353-3.054,14.215,1.419,20.032c2.255,2.932,4.492,5.883,6.669,8.799l-11.404,11.405    c-2.925-2.183-5.876-4.419-8.802-6.669c-5.814-4.475-13.678-5.028-20.032-1.421c-6.087,3.458-12.59,6.153-19.325,8.01    c-7.042,1.94-12.204,7.894-13.15,15.165c-0.479,3.677-0.984,7.343-1.506,10.935h-16.13c-0.521-3.592-1.026-7.257-1.506-10.931    c-0.949-7.274-6.11-13.228-13.15-15.168c-6.737-1.856-13.238-4.551-19.327-8.009c-6.354-3.61-14.218-3.055-20.031,1.419    c-2.927,2.251-5.876,4.486-8.803,6.669l-11.404-11.405c2.177-2.919,4.413-5.868,6.671-8.803c4.47-5.815,5.027-13.677,1.417-20.03    c-3.457-6.086-6.152-12.59-8.009-19.327c-1.939-7.04-7.892-12.201-15.165-13.15c-3.677-0.48-7.343-0.984-10.935-1.507v-16.128    c3.592-0.521,7.257-1.027,10.934-1.506c7.273-0.949,13.227-6.111,15.165-13.149c1.857-6.738,4.551-13.241,8.009-19.328    c3.611-6.353,3.054-14.216-1.417-20.031c-2.259-2.936-4.495-5.886-6.67-8.8l11.404-11.405c2.925,2.183,5.875,4.419,8.8,6.668    c5.812,4.475,13.675,5.033,20.034,1.422c6.085-3.457,12.589-6.152,19.325-8.01c7.042-1.94,12.204-7.894,13.15-15.165    c0.48-3.677,0.986-7.342,1.507-10.934h16.13c0.521,3.591,1.026,7.256,1.505,10.931c0.949,7.274,6.111,13.228,13.15,15.167    c6.738,1.857,13.242,4.553,19.328,8.01c6.355,3.611,14.218,3.05,20.03-1.42c2.927-2.25,5.876-4.486,8.803-6.669l11.404,11.405    c-2.175,2.915-4.411,5.866-6.67,8.803c-4.471,5.814-5.027,13.676-1.419,20.029c3.457,6.088,6.152,12.592,8.009,19.328    c1.939,7.04,7.892,12.201,15.165,13.15c3.677,0.48,7.343,0.985,10.935,1.507V138.142z"/><path d="M381.924,83.675c-25.585,0-46.401,20.815-46.401,46.401c0,25.587,20.815,46.402,46.401,46.402    s46.401-20.815,46.401-46.402C428.325,104.49,407.51,83.675,381.924,83.675z M381.924,155.851    c-14.211,0-25.775-11.563-25.775-25.776c0-14.213,11.563-25.775,25.775-25.775c14.212,0,25.774,11.563,25.775,25.775    C407.699,144.288,396.136,155.851,381.924,155.851z"/></g><g transform="matrix(0.07050611823797226 0 0 0.07050611823797226 133.9504337310791 120.9504337310791)" id="L1_4"><path d="M499.904,456.607H12.096C5.415,456.607,0,462.022,0,468.703c0,6.679,5.415,12.096,12.096,12.096h487.808    c6.679,0,12.096-5.417,12.096-12.096C512,462.023,506.585,456.607,499.904,456.607z"/><path d="M468.37,88.305h-84.948c-6.679,0-12.096,5.417-12.096,12.096v82.24h-60.757V43.297c0-6.679-5.417-12.096-12.096-12.096    h-84.95c-6.679,0-12.096,5.417-12.096,12.096v228.882h-60.757V169.36c0-6.681-5.417-12.096-12.096-12.096H43.626    c-6.681,0-12.096,5.415-12.096,12.096v231.563c0,6.681,5.417,12.096,12.096,12.096h84.948h84.948h84.95h84.949h84.948    c6.681,0,12.096-5.417,12.096-12.096V100.401C480.466,93.722,475.051,88.305,468.37,88.305z M116.479,388.827H55.722V181.456    h60.757V388.827z M201.429,388.827h-60.757v-92.456h60.757V388.827z M286.378,194.737v194.09H225.62V55.393h60.758V194.737z     M371.328,388.827h-60.757V206.833h60.757V388.827z M456.276,388.827H395.52v-194.09v-82.24h60.757V388.827z"/></g><g transform="matrix(0.0648752823472023 0 0 0.0648752823472023 202.3919277191162 94.43184178279841)" id="L1_5"><path d="M489.061,35.88H267.469V22.971c0-6.334-5.135-11.469-11.469-11.469c-6.334,0-11.469,5.135-11.469,11.469V35.88H22.939    C10.29,35.88,0,46.17,0,58.819v21.284c0,12.648,10.29,22.939,22.939,22.939h3.117v257.795c0,12.648,10.29,22.939,22.939,22.939    h195.536v33.662l-84.993,62.343c-5.107,3.747-6.212,10.925-2.465,16.032c3.748,5.108,10.925,6.211,16.032,2.465l71.426-52.392    v43.144c0,6.334,5.135,11.469,11.469,11.469c6.335,0,11.469-5.135,11.469-11.469v-43.144l71.426,52.392    c2.044,1.499,4.42,2.222,6.775,2.222c3.529,0,7.01-1.623,9.257-4.686c3.747-5.107,2.643-12.285-2.465-16.032l-84.993-62.343    v-33.662h195.536c12.648,0,22.939-10.29,22.939-22.939V103.041h3.117c12.648,0,22.939-10.29,22.939-22.939V58.819    C512,46.17,501.71,35.88,489.061,35.88z M463.005,360.835H48.995V103.041h414.011V360.835z M489.061,80.102H22.939V58.819h466.123    V80.102z"/><path d="M255.782,136.254c-5.701,0-10.322,4.621-10.322,10.322v79.157h-79.157c-5.701,0-10.322,4.621-10.322,10.322    c0,55.031,44.771,99.801,99.802,99.801s99.803-44.771,99.803-99.801S310.813,136.254,255.782,136.254z M255.782,315.212    c-40.15,0-73.413-30.046-78.487-68.834h78.487c5.701,0,10.322-4.621,10.322-10.322v-78.487    c38.788,5.074,68.835,38.337,68.835,78.487C334.94,279.703,299.43,315.212,255.782,315.212z"/><path d="M220.845,125.575c-41.652,0-75.539,33.891-75.539,75.548c0,5.701,4.621,10.322,10.322,10.322h65.217    c5.701,0,10.322-4.621,10.322-10.322v-65.226C231.168,130.196,226.547,125.575,220.845,125.575z M210.523,190.801h-43.599    c4.203-22.013,21.59-39.403,43.599-43.607V190.801z"/></g><g transform="matrix(0.06461778283119202 0 0 0.06461778283119202 84.45784759521484 90.45787615179233)" id="L1_6"><path d="M498.966,339.946c-7.197,0-13.034,5.837-13.034,13.034v49.804c0,28.747-23.388,52.135-52.135,52.135H78.203    c-28.747,0-52.135-23.388-52.135-52.135V352.98c0-7.197-5.835-13.034-13.034-13.034C5.835,339.946,0,345.782,0,352.98v49.804    c0,43.121,35.082,78.203,78.203,78.203h355.594c43.121,0,78.203-35.082,78.203-78.203V352.98    C512,345.782,506.165,339.946,498.966,339.946z"/><path d="M419.833,391.3H92.167c-7.197,0-13.034,5.837-13.034,13.034s5.835,13.034,13.034,13.034h327.665    c7.199,0,13.034-5.835,13.034-13.034C432.866,397.137,427.031,391.3,419.833,391.3z"/><path d="M387.919,207.93c-4.795-5.367-13.034-5.834-18.404-1.038l-100.482,89.765V44.048c0-7.197-5.835-13.034-13.034-13.034    c-7.197,0-13.034,5.835-13.034,13.034v252.609l-100.482-89.764c-5.367-4.796-13.607-4.328-18.404,1.038    c-4.794,5.369-4.331,13.609,1.037,18.404l109.174,97.527c6.187,5.529,13.946,8.292,21.708,8.292    c7.759,0,15.519-2.763,21.708-8.289l109.174-97.53C392.25,221.537,392.714,213.297,387.919,207.93z"/></g><g transform="matrix(0.6881366968154907 0 0 0.6881366968154907 195.59861761331558 149.2740530847243)" id="L1_7"><path d="M51.062,21.561c-11.889-11.889-31.232-11.889-43.121,0L0,29.501l8.138,8.138c5.944,5.944,13.752,8.917,21.561,8.917   s15.616-2.972,21.561-8.917l7.941-7.941L51.062,21.561z M49.845,36.225c-11.109,11.108-29.184,11.108-40.293,0l-6.724-6.724   l6.527-6.527c11.109-11.108,29.184-11.108,40.293,0l6.724,6.724L49.845,36.225z"/><path d="M28.572,21.57c-3.86,0-7,3.14-7,7c0,0.552,0.448,1,1,1s1-0.448,1-1c0-2.757,2.243-5,5-5c0.552,0,1-0.448,1-1   S29.125,21.57,28.572,21.57z"/><path d="M29.572,16.57c-7.168,0-13,5.832-13,13s5.832,13,13,13s13-5.832,13-13S36.741,16.57,29.572,16.57z M29.572,40.57   c-6.065,0-11-4.935-11-11s4.935-11,11-11s11,4.935,11,11S35.638,40.57,29.572,40.57z"/></g><g transform="matrix(0.0665210410952568 0 0 0.0665210410952568 80.97061347961426 159.97061347961426)" id="L1_8"><path d="M492.557,400.56L392.234,300.238c-11.976-11.975-31.458-11.975-43.435,0l-26.088,26.088    c-8.174,8.174-10.758,19.845-7.773,30.241l-9.843,9.843c-0.003,0.003-0.005,0.005-0.008,0.008    c-6.99,6.998-50.523-3.741-103.145-56.363c-52.614-52.613-63.356-96.139-56.366-103.142c0-0.002,0.002-0.002,0.002-0.002    l9.852-9.851c2.781,0.799,5.651,1.207,8.523,1.207c7.865,0,15.729-2.993,21.718-8.98l26.088-26.088    c11.975-11.975,11.975-31.458,0-43.434L111.436,19.441c-5.8-5.8-13.513-8.994-21.716-8.994c-8.205,0-15.915,3.196-21.716,8.994    l-26.09,26.09c-8.174,8.174-10.758,19.846-7.773,30.241c0,0-8.344,8.424-8.759,8.956c-27.753,30.849-32.96,79.418-14.561,137.487    c18.017,56.857,56.857,117.088,109.367,169.595c52.508,52.508,112.739,91.348,169.596,109.367    C312.624,508.414,333.991,512,353.394,512c31.813,0,58.337-9.648,77.35-28.66l5.474-5.474c2.74,0.788,5.602,1.213,8.532,1.213    c8.205,0,15.917-3.196,21.716-8.994l26.09-26.09C504.531,432.02,504.531,412.536,492.557,400.56z M89.72,41.157l100.324,100.325    l-26.074,26.102c0,0-0.005-0.005-0.014-0.014l-0.375-0.375l-49.787-49.787L63.631,67.247L89.72,41.157z M409.029,461.623    c-0.002,0.002-0.003,0.003-0.005,0.005c-22.094,22.091-61.146,25.74-109.961,10.27c-52.252-16.558-108.065-52.714-157.156-101.806    C92.814,321,56.658,265.189,40.101,212.936c-15.47-48.817-11.821-87.87,10.275-109.967l0.002-0.002l2.77-2.77l77.857,77.856    l-7.141,7.141c-0.005,0.005-0.009,0.011-0.015,0.017c-29.585,29.622,5.963,96.147,56.378,146.562    c37.734,37.734,84.493,67.14,118.051,67.14c11.284,0,21.076-3.325,28.528-10.778c0.003-0.003,0.005-0.005,0.008-0.008l7.133-7.133    l77.857,77.856L409.029,461.623z M444.752,448.368L344.428,348.044l26.088-26.088L470.84,422.278    C470.84,422.278,444.761,448.377,444.752,448.368z"/><path d="M388.818,123.184c-29.209-29.209-68.042-45.294-109.344-45.293c-8.481,0-15.356,6.875-15.356,15.356    c0,8.481,6.876,15.356,15.356,15.356c33.1-0.002,64.219,12.89,87.628,36.297c23.406,23.406,36.295,54.525,36.294,87.624    c0,8.481,6.875,15.358,15.356,15.358c8.48,0,15.356-6.875,15.356-15.354C434.109,191.224,418.023,152.393,388.818,123.184z"/><path d="M443.895,68.107C399.972,24.186,341.578-0.002,279.468,0c-8.481,0-15.356,6.876-15.356,15.356    c0,8.481,6.876,15.356,15.356,15.356c53.907-0.002,104.588,20.992,142.709,59.111c38.118,38.118,59.111,88.799,59.11,142.706    c0,8.481,6.875,15.356,15.356,15.356c8.48,0,15.356-6.875,15.356-15.354C512.001,170.419,487.813,112.027,443.895,68.107z"/><path d="M333.737,178.26c-14.706-14.706-33.465-22.477-54.256-22.477c0,0-0.005,0-0.006,0    c-8.481,0.002-15.356,6.876-15.354,15.358c0.002,8.481,6.878,15.356,15.358,15.354c0.002,0,0.003,0,0.005,0    c12.644,0,23.593,4.536,32.539,13.481c8.819,8.82,13.481,20.075,13.479,32.544c-0.002,8.481,6.875,15.356,15.354,15.358h0.002    c8.481,0,15.354-6.875,15.356-15.354C356.215,211.732,348.444,192.968,333.737,178.26z"/></g><g transform="matrix(0.06453125178813934 0 0 0.06453125178813934 230.47999954223633 38.479974085846834)" id="L1_9"><path d="M449.716,239.842c-0.543-7.535-7.082-13.191-14.628-12.661c-7.536,0.543-13.204,7.092-12.662,14.628    c0.337,4.655,0.506,9.431,0.506,14.191c0,109.061-88.726,197.787-197.786,197.787C116.086,453.787,27.36,365.06,27.36,256    S116.086,58.214,225.147,58.214c43.191,0,84.21,13.668,118.62,39.525c6.041,4.538,14.615,3.321,19.154-2.718    c4.54-6.04,3.323-14.616-2.717-19.154c-39.189-29.447-85.891-45.012-135.058-45.012C101.001,30.854,0,131.855,0,256    s101.001,225.145,225.147,225.145S450.292,380.146,450.292,256C450.292,250.586,450.097,245.15,449.716,239.842z"/><path d="M496.395,61.77c-20.808-20.807-54.666-20.807-75.474,0l-197.11,197.108l-69.874-69.875    c-20.808-20.807-54.666-20.807-75.474,0c-20.808,20.808-20.808,54.666,0,75.474l120.341,120.341    c6.895,6.895,15.951,10.342,25.007,10.342c9.057,0,18.113-3.447,25.008-10.342l247.576-247.576    C517.201,116.435,517.201,82.579,496.395,61.77z M477.049,117.897L229.472,365.475c-3.12,3.12-8.2,3.12-11.32,0L97.811,245.133    c-10.141-10.141-10.141-26.64,0-36.781c5.07-5.072,11.729-7.606,18.39-7.606s13.321,2.535,18.39,7.606l71.882,71.882    c4.632,4.631,10.791,7.181,17.339,7.181c6.551,0,12.71-2.551,17.341-7.182L440.268,81.116c10.138-10.141,26.64-10.141,36.781,0    C487.189,91.257,487.189,107.756,477.049,117.897z"/></g><g transform="matrix(0.08295940607786179 0 0 0.08295940607786179 138.74533700942993 185.74256324464864)" id="L1_11"><path d="M509.273,298.297l-32.658-116.62c-6.306-22.534-21.891-41.531-42.76-52.122c-20.87-10.592-45.406-11.956-67.32-3.739    c-16.022,6.013-29.628,16.583-39.338,30.558c0,0-0.046,0.037-0.14,0.037H185.45c-0.085,0-0.13-0.03-0.134-0.03    c-9.707-13.981-23.309-24.551-39.341-30.567c-21.915-8.211-46.453-6.85-67.321,3.742c-20.864,10.59-36.448,29.587-42.754,52.119    L3.242,298.296c-10.789,38.513,6.053,75.722,40.048,88.478c8.556,3.208,17.548,4.722,26.513,4.722    c29.164-0.001,58.001-16.026,70.304-41.855l15.67-32.794c9.656,12.936,25.042,20.962,41.742,20.962    c22.775,0,42.735-14.858,49.559-36.094h18.302c6.823,21.236,26.777,36.094,49.548,36.094c16.709,0,32.102-8.035,41.756-20.98    l15.708,32.8c7.92,16.626,21.687,29.581,38.764,36.476c17.078,6.896,35.982,7.134,53.232,0.668    c17.246-6.47,31.332-19.08,39.663-35.506C512.38,334.845,514.235,316.034,509.273,298.297z M485.259,341.736    c-5.94,11.709-15.98,20.698-28.27,25.309c-12.294,4.607-25.77,4.438-37.944-0.477c-12.173-4.916-21.986-14.149-27.641-26.02    l-21.904-45.739c-2.412-5.037-7.578-8.087-13.16-7.805c-5.561,0.295-10.355,3.873-12.212,9.115    c-4.37,12.334-16.105,20.621-29.199,20.621c-14.772,0-27.553-10.5-30.388-24.968c-1.264-6.447-6.942-11.127-13.501-11.127h-29.617    c-6.56,0-12.238,4.68-13.503,11.129c-2.835,14.466-15.621,24.966-30.4,24.966c-13.091,0-24.824-8.284-29.197-20.614    c-1.859-5.243-6.655-8.82-12.218-9.113c-5.575-0.299-10.749,2.775-13.157,7.816l-21.856,45.738    c-11.385,23.899-44.281,36.271-70.401,26.478c-23.884-8.961-35.05-34.895-27.159-63.067l32.659-116.624    c4.79-17.115,16.154-30.969,32.001-39.012c8.977-4.556,18.61-6.851,28.3-6.851c7.418,0,14.871,1.344,22.086,4.049    c12,4.504,22.178,12.407,29.432,22.856c3.95,5.687,10.47,9.082,17.44,9.082h141.606c6.969,0,13.487-3.392,17.435-9.075    c7.265-10.455,17.448-18.361,29.443-22.863c16.64-6.238,34.534-5.244,50.386,2.8c15.849,8.043,27.215,21.898,32.005,39.014    l32.657,116.62C492.521,316.618,491.197,330.028,485.259,341.736z"/><circle cx="396" cy="187" r="13"/><circle cx="396" cy="250" r="13"/><circle cx="365" cy="218" r="13"/><circle cx="428" cy="218" r="13"/><path d="M147.177,208.102h-18.653v-18.653c0-5.818-4.716-10.535-10.535-10.535c-5.818,0-10.535,4.716-10.535,10.535v18.653H88.801    c-5.818,0-10.535,4.716-10.535,10.535c0,5.818,4.716,10.535,10.535,10.535h18.653v18.653c0,5.818,4.716,10.535,10.535,10.535    c5.818,0,10.535-4.716,10.535-10.535v-18.653h18.653c5.818,0,10.535-4.716,10.535-10.535    C157.711,212.818,152.995,208.102,147.177,208.102z"/><path d="M232.033,208.102h-11.524c-5.818,0-10.535,4.716-10.535,10.535c0,5.818,4.716,10.535,10.535,10.535h11.524    c5.818,0,10.535-4.716,10.535-10.535C242.567,212.818,237.851,208.102,232.033,208.102z"/><path d="M291.993,208.102h-11.524c-5.818,0-10.535,4.716-10.535,10.535c0,5.818,4.716,10.535,10.535,10.535h11.524    c5.818,0,10.535-4.716,10.535-10.535C302.528,212.818,297.811,208.102,291.993,208.102z"/><path d="M197.52,264.538c-11.696,0-21.211,9.515-21.211,21.211c0,11.697,9.515,21.212,21.211,21.212    c11.697,0,21.212-9.515,21.212-21.212C218.731,274.053,209.216,264.538,197.52,264.538z M197.52,291.159    c-2.982,0-5.409-2.426-5.409-5.41c0-2.982,2.426-5.409,5.409-5.409c2.983,0,5.41,2.426,5.41,5.409    C202.929,288.732,200.503,291.159,197.52,291.159z"/><path d="M314.927,264.538c-11.696,0-21.211,9.515-21.211,21.211c0,11.697,9.515,21.212,21.211,21.212    c11.696,0,21.211-9.515,21.211-21.212C336.138,274.053,326.623,264.538,314.927,264.538z M314.927,291.159    c-2.982,0-5.409-2.426-5.409-5.41c0-2.982,2.426-5.409,5.409-5.409s5.409,2.426,5.409,5.409    C320.336,288.732,317.91,291.159,314.927,291.159z"/></g><g transform="matrix(0.07697054743766785 0 0 0.07697054743766785 251.29544679322248 181.29542350769043)" id="L1_12"><path d="M302.78,239.712c-4.434-4.429-11.619-4.429-16.05,0.001l-21.306,21.306c-2.937-1.089-6.11-1.687-9.422-1.687    c-3.314,0-6.49,0.599-9.429,1.691l-43.793-43.795c-4.431-4.429-11.616-4.429-16.046,0c-4.431,4.431-4.432,11.616,0,16.048    l43.797,43.798c-1.089,2.935-1.686,6.108-1.686,9.418c0,14.975,12.183,27.159,27.159,27.159c14.976,0,27.159-12.183,27.159-27.159    c0-3.312-0.598-6.487-1.688-9.426l21.306-21.306C307.211,251.329,307.211,244.144,302.78,239.712z M256.002,293.225    c-3.714,0-6.735-3.022-6.735-6.735s3.022-6.735,6.735-6.735c3.714,0,6.735,3.022,6.735,6.735    C262.736,290.204,259.715,293.225,256.002,293.225z"/><path d="M389.959,114.459l12.856-18.36l51.541,36.09c1.92,1.346,4.196,2.053,6.508,2.053c0.656,0,1.315-0.057,1.97-0.172    c2.964-0.522,5.598-2.2,7.324-4.666c26.013-37.151,16.952-88.54-20.198-114.555c-37.151-26.017-88.542-16.953-114.553,20.198    c-3.595,5.133-2.346,12.208,2.786,15.802l46.034,32.234l-12.859,18.365C337.88,80.494,298.334,68.36,256.002,68.36    c-42.332,0-81.877,12.134-115.366,33.088l-12.86-18.365l46.034-32.234c5.133-3.595,6.381-10.669,2.787-15.802    C150.584-2.105,99.195-11.166,62.043,14.848C24.892,40.861,15.83,92.25,41.843,129.402c1.726,2.466,4.361,4.144,7.324,4.666    c0.655,0.117,1.314,0.172,1.97,0.172c2.312,0,4.589-0.708,6.508-2.053l51.541-36.09l12.856,18.36    C70.85,154.412,37.87,216.669,37.87,286.491c0,75.929,39.004,142.91,98.02,181.99l-17.97,25.664    c-3.595,5.132-2.346,12.208,2.786,15.802c1.981,1.388,4.25,2.054,6.498,2.054c3.576,0,7.097-1.687,9.304-4.84l18.986-27.115    c30.097,15.691,64.281,24.579,100.506,24.579c36.221,0,70.402-8.886,100.496-24.573l18.982,27.11    c2.207,3.152,5.728,4.841,9.304,4.841c2.247,0,4.518-0.666,6.498-2.054c5.133-3.595,6.38-10.669,2.786-15.802l-17.965-25.657    c59.021-39.079,98.029-106.063,98.029-181.996C474.133,216.669,441.154,154.412,389.959,114.459z M361.392,39.391    c20.088-19.425,51.829-22.564,75.553-5.955c23.724,16.613,31.629,47.514,20.246,73.033L361.392,39.391z M54.814,106.47    C43.43,80.951,51.335,50.049,75.06,33.437c10.375-7.264,22.28-10.751,34.077-10.751c15.177,0,30.173,5.775,41.475,16.706    L54.814,106.47z M256.002,481.93c-107.766,0-195.439-87.673-195.439-195.439S148.236,91.053,256.002,91.053    s195.439,87.673,195.439,195.438S363.767,481.93,256.002,481.93z"/><path d="M256.002,126.07c-88.456,0-160.421,71.965-160.421,160.421s71.965,160.421,160.421,160.421s160.42-71.965,160.42-160.421    S344.458,126.07,256.002,126.07z M362.642,377.084l-7.667-7.666c-4.431-4.43-11.616-4.43-16.046,0    c-4.431,4.431-4.431,11.616,0,16.046l7.666,7.667c-21.731,18.489-49.159,30.47-79.246,32.895v-10.912    c0-6.266-5.08-11.347-11.347-11.347c-6.267,0-11.347,5.081-11.347,11.347v10.912c-30.088-2.425-57.515-14.406-79.247-32.895    l7.667-7.667c4.431-4.431,4.431-11.616,0-16.046c-4.431-4.43-11.616-4.43-16.048,0l-7.667,7.667    c-18.489-21.731-30.47-49.159-32.895-79.247h10.912c6.267,0,11.347-5.08,11.347-11.347c0-6.267-5.08-11.347-11.347-11.347h-10.912    c2.425-30.088,14.406-57.515,32.895-79.247l7.667,7.667c2.216,2.215,5.12,3.323,8.023,3.323s5.808-1.109,8.023-3.323    c4.431-4.431,4.431-11.616,0-16.048l-7.667-7.667c21.731-18.489,49.159-30.47,79.247-32.895v10.913    c0,6.266,5.08,11.347,11.347,11.347c6.267,0,11.347-5.081,11.347-11.347v-10.913c30.088,2.425,57.515,14.406,79.246,32.895    l-7.666,7.667c-4.431,4.431-4.431,11.616,0,16.048c2.216,2.215,5.12,3.323,8.023,3.323s5.808-1.109,8.023-3.323l7.667-7.666    c18.489,21.731,30.469,49.158,32.894,79.246h-10.912c-6.267,0-11.347,5.08-11.347,11.347s5.082,11.347,11.348,11.347h10.912    C393.112,327.926,381.131,355.353,362.642,377.084z"/></g><path d="M512,256.001c0-10.821-6.012-20.551-15.694-25.398l-38.122-19.061l38.122-19.06c0.001-0.001,0.004-0.002,0.004-0.002    c9.68-4.845,15.692-14.576,15.692-25.397c0-10.819-6.013-20.55-15.694-25.397L281.09,34.08    c-15.712-7.849-34.47-7.849-50.185,0.001L15.691,141.691C6.013,146.534,0,156.264,0,167.084c0,10.821,6.012,20.551,15.694,25.398    l38.121,19.06l-38.126,19.063C6.012,235.45,0,245.18,0,256.001s6.012,20.551,15.694,25.397l38.121,19.061l-38.118,19.059    C6.02,324.353,0.004,334.08,0,344.902c-0.004,10.828,6.008,20.564,15.694,25.412l215.215,107.608    c7.856,3.925,16.471,5.886,25.09,5.886c8.619,0,17.238-1.963,25.095-5.887l215.215-107.608    c9.682-4.845,15.695-14.582,15.691-25.41c-0.004-10.822-6.02-20.549-15.694-25.381l-38.122-19.061l38.126-19.063    C505.988,276.552,512,266.822,512,256.001z M26.225,171.431c-2.339-1.171-2.687-3.226-2.687-4.346s0.35-3.175,2.683-4.343    L241.429,55.138c4.563-2.28,9.568-3.418,14.573-3.418c5.003,0,10.007,1.139,14.567,3.417L485.776,162.74    c2.337,1.17,2.687,3.225,2.687,4.345s-0.348,3.175-2.687,4.346L270.572,279.032c-9.125,4.558-20.019,4.558-29.139,0.001    L26.225,171.431z M485.783,340.575c2.33,1.164,2.679,3.215,2.679,4.336c0.001,1.123-0.348,3.182-2.683,4.35L270.571,456.865    c-9.125,4.558-20.019,4.559-29.139,0.001L26.225,349.262c-2.339-1.171-2.688-3.229-2.687-4.352c0-1.119,0.348-3.171,2.683-4.337    l53.912-26.956l150.776,75.387c7.856,3.925,16.471,5.886,25.089,5.886c8.619,0,17.238-1.963,25.095-5.887l150.772-75.386    L485.783,340.575z M485.778,260.345L270.571,367.949c-9.125,4.558-20.019,4.559-29.139,0.001L26.225,260.347    c-2.339-1.17-2.687-3.225-2.687-4.345c0-1.122,0.348-3.175,2.683-4.344l53.912-26.956l150.776,75.387    c7.855,3.925,16.472,5.886,25.089,5.886c8.617,0,17.237-1.962,25.094-5.888l150.774-75.386l53.908,26.954    c2.339,1.171,2.687,3.225,2.687,4.346C488.462,257.121,488.113,259.176,485.778,260.345z" transform="matrix(0.08155256509780884 0 0 0.08155256509780884 270.1224842071533 101.0875441746536)" id="L1_13"/><path d="M27.405,0l36.542,410.56l163.882,46.244l165.022-46.244L429.398,0H27.405z M350.025,133.904h-192.43l4.283,51.676h183.866   l-14.273,155.315l-102.499,28.26v0.287h-1.143l-103.356-28.547l-6.28-79.367h49.965l3.711,39.971l55.959,15.126l56.245-15.126   l6.283-65.097H115.625l-13.418-152.46h252.392L350.025,133.904z" transform="matrix(0.08225126564502716 0 0 0.08225126564502716 304.21361948207823 49.19390910863876)" id="L1_14"/><path d="M393.516,320.689c9.792,0,18.258-1.531,25.398-4.59c7.14-3.063,13.056-7.039,17.748-11.938    c4.689-4.895,8.16-10.506,10.401-16.83c2.244-6.32,3.366-12.75,3.366-19.275c0-8.568-1.428-15.912-4.284-22.032    c-2.854-6.12-6.63-11.322-11.319-15.606c-4.692-4.284-9.69-7.752-14.994-10.404l-15.3-7.65    c-6.528-2.856-11.526-5.304-14.994-7.344s-5.202-4.284-5.202-6.732c0-4.08,1.53-6.63,4.59-7.65c3.063-1.02,5.202-1.53,6.426-1.53    c10.2,0,18.36,3.468,24.48,10.404c2.854,2.04,5.508,2.856,7.956,2.448c2.854,0,5.1-1.428,6.729-4.284l11.628-18.36    c2.856-4.08,2.448-7.956-1.224-11.628c-12.648-12.648-28.968-18.972-48.96-18.972c-16.32,0-29.682,4.794-40.086,14.382    c-10.404,9.588-15.606,21.726-15.606,36.414c0,8.568,1.431,15.708,4.284,21.42c2.856,5.712,6.528,10.608,11.019,14.688    c4.485,4.08,9.384,7.446,14.688,10.098c5.304,2.652,10.404,4.998,15.3,7.038c7.347,3.264,12.75,6.12,16.221,8.568    c3.468,2.448,5.199,5.304,5.199,8.568c0,6.936-4.689,10.404-14.073,10.404c-11.019,0-20.4-4.283-28.152-12.854    c-1.632-2.04-4.08-3.06-7.344-3.06c-3.672,0-6.12,1.428-7.347,4.283l-12.237,18.975c-2.448,4.08-2.244,7.957,0.609,11.629    C352.716,313.549,371.076,320.689,393.516,320.689z M270.504,320.689c9.792,0,18.36-1.531,25.704-4.59    c7.344-3.063,13.362-7.039,18.054-11.938c4.692-4.895,8.16-10.506,10.404-16.83c2.244-6.32,3.366-12.75,3.366-19.275    c0-8.568-1.53-15.912-4.593-22.032c-3.06-6.12-6.834-11.322-11.319-15.606c-4.488-4.284-9.486-7.752-14.994-10.404    c-5.508-2.652-10.71-5.202-15.606-7.65c-6.117-2.856-11.016-5.304-14.688-7.344s-5.508-4.284-5.508-6.732    c0-4.08,1.53-6.63,4.59-7.65s5.406-1.53,7.038-1.53c10.2,0,18.357,3.468,24.479,10.404c2.04,2.448,4.692,3.264,7.956,2.448    c2.448,0,4.692-1.428,6.732-4.284l11.628-18.36c2.854-4.08,2.448-7.956-1.227-11.628c-12.646-12.648-28.968-18.972-48.96-18.972    c-16.319,0-29.682,4.794-40.083,14.382c-10.404,9.588-15.606,21.726-15.606,36.414c0,8.568,1.428,15.708,4.284,21.42    c2.856,5.712,6.528,10.608,11.016,14.688s9.282,7.446,14.382,10.098c5.1,2.652,10.098,4.998,14.994,7.038    c7.752,3.264,13.362,6.12,16.83,8.568s5.202,5.304,5.202,8.568c0,6.936-4.692,10.404-14.076,10.404    c-11.424,0-20.808-4.283-28.152-12.854c-1.632-2.04-4.284-3.06-7.956-3.06c-3.264,0-5.508,1.428-6.732,4.283l-12.852,18.975    c-2.448,4.486-2.04,8.365,1.224,11.629C229.5,313.549,247.656,320.689,270.504,320.689z M201.348,280.908    c1.224-2.447,1.224-4.895,0-7.344c-0.816-2.447-2.448-4.08-4.896-4.896l-20.196-9.179c-2.448-1.224-4.896-1.224-7.344,0    c-2.856,1.224-4.488,3.06-4.896,5.508c-0.816,2.04-2.652,5.101-5.508,9.181s-7.14,6.117-12.852,6.117    c-7.752,0-14.076-4.182-18.972-12.546c-4.896-8.364-7.344-19.276-7.344-32.742c0-13.464,2.448-24.48,7.344-33.048    s11.22-12.85,18.972-12.85c4.896,0,8.772,1.632,11.628,4.896s5.1,6.528,6.732,9.792c1.224,2.448,3.06,4.08,5.508,4.896    s4.692,0.816,6.732,0l20.196-9.18c2.856-1.224,4.488-3.06,4.896-5.508c0.816-2.856,0.612-5.304-0.612-7.344    c-11.832-25.296-30.192-37.944-55.08-37.944c-20.808,0-37.638,7.956-50.49,23.868s-19.278,36.72-19.278,62.424    s6.426,46.409,19.278,62.118c12.852,15.707,29.682,23.563,50.49,23.563C170.544,320.689,189.108,307.43,201.348,280.908z     M517.14,9.793c5.307,0,9.69,1.734,13.158,5.202s5.202,7.854,5.202,13.158v384.335c0,3.672-1.122,7.141-3.366,10.404    s-4.998,5.508-8.262,6.73L275.4,524.482c-1.635,0.816-3.879,1.225-6.732,1.225c-2.856,0-5.1-0.406-6.732-1.225L12.24,429.623    c-3.672-1.225-6.63-3.469-8.874-6.73C1.122,419.627,0,416.16,0,412.488V28.153c0-5.304,1.836-9.69,5.508-13.158    s7.956-5.202,12.852-5.202H517.14L517.14,9.793z" transform="matrix(0.06212548911571503 0 0 0.06212548911571503 199.353420663625 226.3659004960209)" fill="#010002" id="L1_15"/><g transform="matrix(0.07381325960159302 0 0 0.07381325960159302 300.20584868911874 223.20235508680344)" id="L1_16"><path d="M69.826,105.072c-4.004,0-6.713,0.396-8.132,0.774v25.689c1.687,0.378,3.751,0.504,6.588,0.504   c10.464,0,16.894-5.279,16.894-14.185C85.176,109.849,79.629,105.072,69.826,105.072z"/><path d="M249.148,117.854c0-8.006-5.549-12.782-15.352-12.782c-4.004,0-6.715,0.396-8.133,0.774v25.689   c1.67,0.378,3.75,0.504,6.588,0.504C242.685,132.039,249.148,126.76,249.148,117.854z"/><path d="M357.17,0H163.521c-28.29,0-51.316,23.041-51.316,51.315v9.504h-88.43c-11.428,0-20.68,9.251-20.68,20.677v105.295   c0,11.426,9.252,20.678,20.68,20.678h88.43v223.355c0,28.305,23.026,51.315,51.316,51.315h264.221   c28.275,0,51.301-23.01,51.301-51.315V121.449L357.17,0z M96.682,137.98c-6.715,6.32-16.643,9.158-28.273,9.158   c-2.586,0-4.887-0.127-6.714-0.378v31.094H42.213V92.039c6.068-1.024,14.595-1.796,26.589-1.796c12.12,0,20.788,2.317,26.589,6.966   c5.547,4.381,9.297,11.616,9.297,20.126C104.688,125.847,101.851,133.08,96.682,137.98z M169.367,124.301V90.889h19.607v86.966   h-19.607v-36.391h-32.402v36.391h-19.731V90.889h19.731v33.412H169.367z M427.742,450.713H163.521   c-10.953,0-19.874-8.92-19.874-19.889V207.469h139.731c11.426,0,20.676-9.252,20.676-20.678V81.496   c0-11.426-9.25-20.677-20.676-20.677H143.648v-9.504c0-10.938,8.92-19.858,19.874-19.858l181.889-0.189v67.234   c0,19.637,15.934,35.586,35.588,35.586l65.863-0.189l0.74,296.925C447.601,441.793,438.695,450.713,427.742,450.713z    M206.185,177.855V92.039c6.051-1.024,14.594-1.796,26.572-1.796c12.133,0,20.771,2.317,26.602,6.966   c5.549,4.381,9.268,11.616,9.268,20.126c0,8.512-2.836,15.745-7.975,20.645c-6.713,6.32-16.674,9.158-28.275,9.158   c-2.584,0-4.916-0.127-6.713-0.378v31.094H206.185z"/><path d="M296.019,286.965c0-4.713-2.412-9.111-6.383-11.647c-3.973-2.539-8.984-2.87-13.256-0.883l-76.531,35.555   c-6.289,2.916-10.322,9.236-10.322,16.186c0,6.935,4.033,13.255,10.322,16.171l76.531,35.57c4.272,1.985,9.268,1.654,13.256-0.883   c3.971-2.537,6.383-6.934,6.383-11.662c0-5.484-3.248-10.449-8.275-12.654l-60.582-26.557l60.582-26.541   C292.771,297.412,296.019,292.448,296.019,286.965z"/><path d="M360.385,248.288c-8.953,0-17.068,1.545-23.705,3.734c-6.037,2.001-9.359,8.464-7.471,14.531   c1.893,6.036,8.244,9.488,14.326,7.77c3.326-0.93,6.762-1.449,9.883-1.449c10.244,0.409,14.973,5.139,14.973,12.309   c0,6.981-5.328,13.539-11.898,21.323c-9.236,11.08-12.719,21.749-12.09,32.183l0.064,1.798c0.076,1.985,1.701,3.546,3.688,3.546   h20.031c2.033,0,3.688-1.656,3.688-3.688c-0.205-9.236,2.854-17.227,10.449-25.643c7.803-8.621,17.43-18.864,17.43-34.436   C399.752,263.244,387.443,248.288,360.385,248.288z"/><path d="M357.529,353.662c-10.668,0-18.264,7.801-18.264,18.659c0,10.669,7.391,18.661,18.264,18.661   c11.066,0,18.457-7.992,18.457-18.661C375.75,361.463,368.596,353.662,357.529,353.662z"/></g><g transform="matrix(0.07084975391626358 0 0 0.07084975391626358 176.48792418301275 7.472690314054489)" id="L1_17"><path d="M475.084,131.997c-0.021-2.531-0.833-5.021-2.567-6.992L366.325,3.694c-0.032-0.034-0.063-0.045-0.085-0.076    c-0.633-0.707-1.371-1.295-2.151-1.804c-0.231-0.155-0.464-0.285-0.706-0.422c-0.676-0.366-1.393-0.675-2.131-0.896    c-0.2-0.053-0.38-0.135-0.58-0.188C359.87,0.119,359.037,0,358.193,0H97.2c-11.918,0-21.6,9.693-21.6,21.601v507.6    c0,11.907,9.682,21.601,21.6,21.601h356.4c11.907,0,21.6-9.693,21.6-21.601V133.202    C475.2,132.796,475.137,132.398,475.084,131.997z M251.599,469.832c0,38.043-18.225,51.311-47.548,51.311    c-6.94,0-16.055-1.182-21.998-3.164l3.375-24.374c4.158,1.393,9.503,2.384,15.448,2.384c12.68,0,20.596-5.759,20.596-26.557    v-83.996h30.122v84.396H251.599z M309.445,520.942c-15.25,0-30.296-3.966-37.829-8.121l6.138-24.965    c8.118,4.166,20.606,8.321,33.483,8.321c13.869,0,21.189-5.737,21.189-14.459c0-8.322-6.339-13.078-22.381-18.816    c-22.19-7.73-36.647-20.007-36.647-39.424c0-22.781,19.013-40.215,50.512-40.215c15.056,0,26.156,3.164,34.076,6.739    l-6.724,24.363c-5.357-2.573-14.86-6.339-27.943-6.339c-13.067,0-19.417,5.954-19.417,12.878c0,8.511,7.536,12.287,24.774,18.815    c23.567,8.723,34.668,20.999,34.668,39.814C363.34,501.926,346.096,520.942,309.445,520.942z M453.601,366.747H97.2V21.601    h250.193v110.51c0,5.967,4.841,10.8,10.8,10.8h95.407V366.747z"/><path d="M174.396,126.755c0,9.336,6.637,16.928,14.79,16.928c2.304,0,4.179-2.144,4.179-4.789c0-2.647-1.88-4.785-4.179-4.785   c-3.536,0-6.426-3.299-6.426-7.354c0-4.061,2.89-7.356,6.426-7.356h0.037c0.799,0,7.971-0.182,8.026,6.557v183.658   c0,7.921,5.627,14.365,12.543,14.365h22.32c-0.008-0.042-0.008-0.085-0.013-0.116h114.03c9.091,0,16.474-8.453,16.474-18.868   c0-8.648-5.125-15.947-12.086-18.151c0.01-0.042,0.021-0.063,0.021-0.095h0.042V124.185c0-7.921-5.621-14.359-12.54-14.359H189.066   c-0.005,0-0.005,0-0.005,0C181.032,109.819,174.396,117.419,174.396,126.755z M231.488,305.101c0-3.713-1.107-6.824-2.694-9.397   h106.238c4.472,0,8.11,4.166,8.11,9.292c0,5.136-3.639,9.297-8.11,9.297h-106.13C230.426,311.787,231.488,308.739,231.488,305.101z    M227.438,216.902h97.875v8.774h-97.875V216.902z M227.438,185.177h97.875v8.775h-97.875V185.177z M227.438,152.777h97.875v8.774   h-97.875V152.777z"/></g><path d="M480.894,160.8l-24.3-24.3c-4.1-4.1-9.6-6.4-15.4-6.4s-11.3,2.3-15.4,6.4l-3.3,3.3c-32.1-21.4-69.4-32.7-108.5-32.8   c-0.1,0-0.2,0-0.4,0c-24.3,0-47.8,4.3-69.9,12.7l42.6-42.6c5.4,2.6,11.3,3.9,17.4,3.9c10.8,0,21-4.2,28.6-11.9   c7.6-7.6,11.9-17.8,11.9-28.6s-4.2-21-11.9-28.6S314.494,0,303.694,0s-21,4.2-28.6,11.9s-11.9,17.8-11.9,28.6   c0,6.1,1.4,12.1,3.9,17.4l-76.7,76.7l-2.6-2.6c-4.1-4.1-9.6-6.4-15.4-6.4s-11.3,2.3-15.4,6.4l-24.6,24.5c-4.1,4.1-6.4,9.6-6.4,15.4   s2.3,11.3,6.4,15.4l2.6,2.6l-76.7,76.7c-5.4-2.6-11.3-3.9-17.4-3.9c-10.8,0-21,4.2-28.6,11.9c-15.8,15.8-15.8,41.5,0,57.2   c7.6,7.6,17.8,11.9,28.6,11.9s21-4.2,28.6-11.9c12.4-12.4,15.1-31,7.9-46l42.6-42.6c-8.4,22.2-12.8,45.9-12.7,70.3   c0.1,39.1,11.4,76.4,32.8,108.5l-4.1,4.1c-8.5,8.5-8.5,22.4,0,30.9l24.4,24.4c4.1,4.1,9.6,6.4,15.4,6.4c5.8,0,11.3-2.3,15.4-6.4   l24.4-24.4c8.5-8.5,8.5-22.4,0-30.9l-24.4-24.4c-4.1-4.1-9.6-6.4-15.4-6.4c-5.8,0-11.3,2.3-15.4,6.4l-0.7,0.7   c-35.1-56.9-33.6-130.5,4.7-185.9c2.5,1,5.1,1.5,7.9,1.5c5.8,0,11.3-2.3,15.4-6.4l24.4-24.4c6.3-6.3,7.9-15.5,4.9-23.3   c55.4-38.3,129-39.9,185.9-4.7l-1.5,1.5c-8.5,8.5-8.5,22.4,0,30.9l24.4,24.4c4.1,4.1,9.6,6.4,15.4,6.4s11.3-2.3,15.4-6.4l24.4-24.4   C489.494,183.2,489.494,169.4,480.894,160.8z M192.794,441.7l-17.1,17.1l-17.1-17.1l17.1-17.1L192.794,441.7z M293.994,31.1   c2.5-2.5,5.9-3.9,9.5-3.9s7,1.4,9.5,3.9s3.9,5.9,3.9,9.5s-1.4,7-3.9,9.5s-5.9,3.9-9.5,3.9s-7-1.4-9.5-3.9l0,0l0,0   c-2.5-2.5-3.9-5.9-3.9-9.5S291.494,33.7,293.994,31.1z M50.394,312.8c-2.5,2.5-5.9,3.9-9.5,3.9s-7-1.4-9.5-3.9   c-5.3-5.3-5.3-13.8,0-19c2.5-2.5,5.9-3.9,9.5-3.9s7,1.4,9.5,3.9C55.694,299,55.694,307.6,50.394,312.8z M172.194,189l-17.1-17.1   l17.1-17.1l8.5,8.5l0,0l0,0l8.5,8.5L172.194,189z M441.094,193.3l-17.1-17.1l17.1-17.1l17.1,17.1L441.094,193.3z" transform="matrix(0.01161571172389615 0.08421394985711052 -0.08421394985711052 0.01161571172389615 350.6284711584223 147.6162775780095)" id="L1_18"/><path d="M52.618,2.631c-3.51-3.508-9.219-3.508-12.729,0L3.827,38.693C3.81,38.71,3.8,38.731,3.785,38.749  c-0.021,0.024-0.039,0.05-0.058,0.076c-0.053,0.074-0.094,0.153-0.125,0.239c-0.009,0.026-0.022,0.049-0.029,0.075  c-0.003,0.01-0.009,0.02-0.012,0.03l-3.535,14.85c-0.016,0.067-0.02,0.135-0.022,0.202C0.004,54.234,0,54.246,0,54.259  c0.001,0.114,0.026,0.225,0.065,0.332c0.009,0.025,0.019,0.047,0.03,0.071c0.049,0.107,0.11,0.21,0.196,0.296  c0.095,0.095,0.207,0.168,0.328,0.218c0.121,0.05,0.25,0.075,0.379,0.075c0.077,0,0.155-0.009,0.231-0.027l14.85-3.535  c0.027-0.006,0.051-0.021,0.077-0.03c0.034-0.011,0.066-0.024,0.099-0.039c0.072-0.033,0.139-0.074,0.201-0.123  c0.024-0.019,0.049-0.033,0.072-0.054c0.008-0.008,0.018-0.012,0.026-0.02l36.063-36.063C56.127,11.85,56.127,6.14,52.618,2.631z   M51.204,4.045c2.488,2.489,2.7,6.397,0.65,9.137l-9.787-9.787C44.808,1.345,48.716,1.557,51.204,4.045z M46.254,18.895l-9.9-9.9  l1.414-1.414l9.9,9.9L46.254,18.895z M4.961,50.288c-0.391-0.391-1.023-0.391-1.414,0L2.79,51.045l2.554-10.728l4.422-0.491  l-0.569,5.122c-0.004,0.038,0.01,0.073,0.01,0.11c0,0.038-0.014,0.072-0.01,0.11c0.004,0.033,0.021,0.06,0.028,0.092  c0.012,0.058,0.029,0.111,0.05,0.165c0.026,0.065,0.057,0.124,0.095,0.181c0.031,0.046,0.062,0.087,0.1,0.127  c0.048,0.051,0.1,0.094,0.157,0.134c0.045,0.031,0.088,0.06,0.138,0.084C9.831,45.982,9.9,46,9.972,46.017  c0.038,0.009,0.069,0.03,0.108,0.035c0.036,0.004,0.072,0.006,0.109,0.006c0,0,0.001,0,0.001,0c0,0,0.001,0,0.001,0h0.001  c0,0,0.001,0,0.001,0c0.036,0,0.073-0.002,0.109-0.006l5.122-0.569l-0.491,4.422L4.204,52.459l0.757-0.757  C5.351,51.312,5.351,50.679,4.961,50.288z M17.511,44.809L39.889,22.43c0.391-0.391,0.391-1.023,0-1.414s-1.023-0.391-1.414,0  L16.097,43.395l-4.773,0.53l0.53-4.773l22.38-22.378c0.391-0.391,0.391-1.023,0-1.414s-1.023-0.391-1.414,0L10.44,37.738  l-3.183,0.354L34.94,10.409l9.9,9.9L17.157,47.992L17.511,44.809z M49.082,16.067l-9.9-9.9l1.415-1.415l9.9,9.9L49.082,16.067z" transform="matrix(0.6176468133926392 0 0 0.6176468133926392 85.87896752357483 225.87896752357483)" id="L1_19"/><g transform="matrix(0.16416487097740173 0 0 0.16416487097740173 253.2799791097641 257.2765527506557)" id="L1_21"><path d="m39.818,72.494h97.652c3.866,0 7-3.134 7-7s-3.134-7-7-7h-97.652c-3.866,0-7,3.134-7,7s3.134,7 7,7z"/><path d="m39.818,96.543h97.652c3.866,0 7-3.134 7-7s-3.134-7-7-7h-97.652c-3.866,0-7,3.134-7,7s3.134,7 7,7z"/><path d="m91.477,178.738h-51.659c-3.866,0-7,3.134-7,7s3.134,7 7,7h51.658c3.866,0 7-3.134 7-7s-3.133-7-6.999-7z"/><path d="m236.763,20.911l-20.58-12.348c-1.592-0.955-3.498-1.24-5.299-0.789-1.801,0.45-3.35,1.598-4.305,3.189l-35.829,59.714v-42.32c0-3.866-3.134-7-7-7h-156.75c-3.866,0-7,3.134-7,7v197.24c0,3.866 3.134,7 7,7h156.75c3.866,0 7-3.134 7-7v-81.062l68.414-114.02c1.989-3.315 0.914-7.614-2.401-9.604zm-90.402,137.061l-11.617,9.643 3.042-14.788 67.152-111.917 8.575,5.145-67.152,111.917zm74.355-123.922l-8.575-5.145 2.842-4.736 8.575,5.145-2.842,4.736zm-206.716,184.547v-183.24h142.75v58.653l-12.363,20.604c0.049-0.335 0.083-0.674 0.083-1.022 0-3.866-3.134-7-7-7h-97.652c-3.866,0-7,3.134-7,7s3.134,7 7,7h97.652c1.559,0 2.993-0.516 4.156-1.377l-6.856,11.426h-94.952c-3.866,0-7,3.134-7,7s3.134,7 7,7h86.552l-1.204,2.006c-0.406,0.677-0.695,1.418-0.854,2.191l-1.203,5.851h-83.291c-3.866,0-7,3.134-7,7s3.134,7 7,7h80.411l-3.217,15.639c-0.599,2.911 0.706,5.883 3.255,7.413 1.114,0.668 2.36,0.998 3.601,0.998 1.597,0 3.185-0.545 4.472-1.614l27.88-23.142c0.191-0.159 0.357-0.344 0.53-0.521v51.135h-142.75z"/></g><g transform="matrix(0.06955187022686005 0 0 0.06955187022686005 140.0803890291565 262.08846461603514)" id="L1_22"><path d="M395.5,135.8c-5.2-30.9-20.5-59.1-43.9-80.5c-26-23.8-59.8-36.9-95-36.9c-27.2,0-53.7,7.8-76.4,22.5    c-18.9,12.2-34.6,28.7-45.7,48.1c-4.8-0.9-9.8-1.4-14.8-1.4c-42.5,0-77.1,34.6-77.1,77.1c0,5.5,0.6,10.8,1.6,16    C16.7,200.7,0,232.9,0,267.2c0,27.7,10.3,54.6,29.1,75.9c19.3,21.8,44.8,34.7,72,36.2c0.3,0,0.5,0,0.8,0h86    c7.5,0,13.5-6,13.5-13.5s-6-13.5-13.5-13.5h-85.6C61.4,349.8,27,310.9,27,267.1c0-28.3,15.2-54.7,39.7-69    c5.7-3.3,8.1-10.2,5.9-16.4c-2-5.4-3-11.1-3-17.2c0-27.6,22.5-50.1,50.1-50.1c5.9,0,11.7,1,17.1,3c6.6,2.4,13.9-0.6,16.9-6.9    c18.7-39.7,59.1-65.3,103-65.3c59,0,107.7,44.2,113.3,102.8c0.6,6.1,5.2,11,11.2,12c44.5,7.6,78.1,48.7,78.1,95.6    c0,49.7-39.1,92.9-87.3,96.6h-73.7c-7.5,0-13.5,6-13.5,13.5s6,13.5,13.5,13.5h74.2c0.3,0,0.6,0,1,0c30.5-2.2,59-16.2,80.2-39.6    c21.1-23.2,32.6-53,32.6-84C486.2,199.5,447.9,149.6,395.5,135.8z"/><path d="M324.2,280c5.3-5.3,5.3-13.8,0-19.1l-71.5-71.5c-2.5-2.5-6-4-9.5-4s-7,1.4-9.5,4l-71.5,71.5c-5.3,5.3-5.3,13.8,0,19.1    c2.6,2.6,6.1,4,9.5,4s6.9-1.3,9.5-4l48.5-48.5v222.9c0,7.5,6,13.5,13.5,13.5s13.5-6,13.5-13.5V231.5l48.5,48.5    C310.4,285.3,318.9,285.3,324.2,280z"/></g><g transform="matrix(0.8046016097068787 0 0 0.8046016097068787 -0.16891241999081785 97.76474484801292)" id="L1_23"><path d="M36.176,49.999c-1.93,0-3.5,1.57-3.5,3.5s1.57,3.5,3.5,3.5s3.5-1.57,3.5-3.5S38.105,49.999,36.176,49.999z M36.176,54.999   c-0.827,0-1.5-0.673-1.5-1.5s0.673-1.5,1.5-1.5s1.5,0.673,1.5,1.5S37.003,54.999,36.176,54.999z"/><path d="M40.676,36.999c2.206,0,4-1.794,4-4s-1.794-4-4-4s-4,1.794-4,4S38.469,36.999,40.676,36.999z M40.676,30.999   c1.103,0,2,0.897,2,2s-0.897,2-2,2s-2-0.897-2-2S39.573,30.999,40.676,30.999z"/><path d="M16.676,11.999c0.256,0,0.512-0.098,0.707-0.293l2-2c0.391-0.391,0.391-1.023,0-1.414s-1.023-0.391-1.414,0l-2,2   c-0.391,0.391-0.391,1.023,0,1.414C16.164,11.901,16.42,11.999,16.676,11.999z"/><path d="M52.676,29.747c0-0.88-0.343-1.707-0.965-2.329l-0.557-0.557c0.949-0.84,1.521-2.055,1.521-3.362   c0-2.481-2.019-4.5-4.5-4.5c-0.182,0-0.362,0.018-0.54,0.04c0.022-0.179,0.04-0.357,0.04-0.54c0-2.481-2.019-4.5-4.5-4.5   c-0.182,0-0.362,0.018-0.54,0.04c0.022-0.179,0.04-0.357,0.04-0.54c0-2.481-2.019-4.5-4.5-4.5c-0.182,0-0.362,0.018-0.54,0.04   c0.022-0.179,0.04-0.357,0.04-0.54c0-2.481-2.019-4.5-4.5-4.5c-1.308,0-2.522,0.573-3.362,1.521l-0.794-0.794l-3.763-3.763   c-1.285-1.285-3.375-1.285-4.658,0L8.286,13.275c-1.283,1.285-1.283,3.374,0,4.659l3.763,3.763l4.91,4.91   c-1.356,0.776-2.283,2.221-2.283,3.892c0,1.563,0.803,2.941,2.017,3.748c0.061,0.081,0.132,0.161,0.227,0.242l10.756,10.715v1.796   h-2v13h18h8v-13h-2V43.97c1.913-1.621,3-3.952,3-6.471c0-1.74-0.543-3.43-1.536-4.852l0.571-0.571   C52.333,31.454,52.676,30.627,52.676,29.747z M50.676,23.499c0,0.768-0.354,1.479-0.937,1.947l-3.511-3.511   c0.468-0.583,1.18-0.937,1.947-0.937C49.554,20.999,50.676,22.12,50.676,23.499z M45.676,18.499c0,0.768-0.354,1.479-0.937,1.947   l-3.511-3.511c0.468-0.583,1.18-0.937,1.947-0.937C44.554,15.999,45.676,17.12,45.676,18.499z M40.676,13.499   c0,0.768-0.354,1.479-0.937,1.947l-3.511-3.511c0.468-0.583,1.18-0.937,1.947-0.937C39.554,10.999,40.676,12.12,40.676,13.499z    M33.176,5.999c1.379,0,2.5,1.121,2.5,2.5c0,0.768-0.354,1.479-0.937,1.947l-3.511-3.511C31.696,6.353,32.408,5.999,33.176,5.999z    M9.7,16.521c-0.504-0.505-0.504-1.326,0-1.831L22.012,2.378c0.125-0.125,0.271-0.219,0.426-0.282   c0.07-0.029,0.149-0.028,0.223-0.044c0.178-0.038,0.354-0.038,0.532,0c0.074,0.016,0.153,0.015,0.223,0.044   c0.155,0.063,0.3,0.157,0.426,0.282l2.349,2.349L12.049,18.869L9.7,16.521z M27.605,6.141l1.178,1.178l5,5l0.573,0.573l4.427,4.427   l0.573,0.573l4.427,4.427l0.573,0.573l5,5l0.94,0.94c0.505,0.505,0.505,1.325,0,1.83L49.859,31.1l0,0L37.985,42.975   c-0.503,0.504-1.326,0.506-1.831,0l-7.975-7.976h0.996c2.481,0,4.5-2.019,4.5-4.5s-2.019-4.5-4.5-4.5h-9.997l-5.716-5.716   L27.605,6.141z M18.636,28.061l0.415-0.047c0.041-0.006,0.082-0.015,0.124-0.015h10c1.379,0,2.5,1.121,2.5,2.5s-1.121,2.5-2.5,2.5   h-2.996h-2.828h-4.176c-1.379,0-2.5-1.121-2.5-2.5C16.676,29.306,17.517,28.309,18.636,28.061z M27.676,57.999v-9h8.426   c3.073,0,5.574,2.501,5.574,5.574v3.426H27.676z M49.676,57.999h-6v-3.426c0-2.206-0.954-4.188-2.464-5.574h8.464V57.999z    M49.701,34.087c0.634,1.021,0.975,2.202,0.975,3.412c0,2.055-0.948,3.946-2.602,5.191l-0.398,0.3v4.009H36.101h-6.426v-2.718   l-0.353-0.299c-0.045-0.039-0.093-0.075-0.18-0.14l-8.877-8.844h5.085l9.389,9.39c0.643,0.642,1.486,0.963,2.329,0.963   c0.844,0,1.688-0.321,2.33-0.963L49.701,34.087z"/></g><path d="M39.927,41.929c-0.524,0.524-0.975,1.1-1.365,1.709l-17.28-10.489c0.457-1.144,0.716-2.388,0.716-3.693  c0-1.305-0.259-2.549-0.715-3.693l17.284-10.409C40.342,18.142,43.454,20,46.998,20c5.514,0,10-4.486,10-10s-4.486-10-10-10  s-10,4.486-10,10c0,1.256,0.243,2.454,0.667,3.562L20.358,23.985c-1.788-2.724-4.866-4.529-8.361-4.529c-5.514,0-10,4.486-10,10  s4.486,10,10,10c3.495,0,6.572-1.805,8.36-4.529L37.661,45.43c-0.43,1.126-0.664,2.329-0.664,3.57c0,2.671,1.04,5.183,2.929,7.071  c1.949,1.949,4.51,2.924,7.071,2.924s5.122-0.975,7.071-2.924c1.889-1.889,2.929-4.4,2.929-7.071s-1.04-5.183-2.929-7.071  C50.169,38.029,43.826,38.029,39.927,41.929z M46.998,2c4.411,0,8,3.589,8,8s-3.589,8-8,8s-8-3.589-8-8S42.586,2,46.998,2z   M11.998,37.456c-4.411,0-8-3.589-8-8s3.589-8,8-8s8,3.589,8,8S16.409,37.456,11.998,37.456z M52.654,54.657  c-3.119,3.119-8.194,3.119-11.313,0c-1.511-1.511-2.343-3.521-2.343-5.657s0.832-4.146,2.343-5.657  c1.56-1.56,3.608-2.339,5.657-2.339s4.097,0.779,5.657,2.339c1.511,1.511,2.343,3.521,2.343,5.657S54.166,53.146,52.654,54.657z" transform="matrix(0.6255324482917786 0 0 0.6255324482917786 9.548359986116736 14.353584507397159)" id="L1_24"/><g transform="matrix(0.7104831337928772 0 0 0.7104831337928772 13.612404270431853 192.68550598621368)" id="L1_25"><path d="M21.021,28.977C18.75,26.412,15.722,25,12.493,25s-6.257,1.412-8.527,3.977c-4.612,5.211-4.612,13.688,0,18.899   l8.527,9.633l8.527-9.633C25.633,42.665,25.633,34.188,21.021,28.977z M19.523,46.55l-7.029,7.941L5.464,46.55   c-3.966-4.479-3.966-11.768,0-16.247C7.349,28.173,9.846,27,12.493,27s5.145,1.173,7.029,3.303   C23.488,34.782,23.488,42.07,19.523,46.55z"/><path d="M48.747,24.507l6.464-7.286c3.478-3.92,3.478-10.296,0-14.216C53.491,1.067,51.195,0,48.746,0   c-2.448,0-4.744,1.067-6.464,3.005c-3.478,3.92-3.478,10.296,0,14.216L48.747,24.507z M43.778,4.333   C45.113,2.828,46.877,2,48.746,2c1.87,0,3.634,0.828,4.969,2.333c2.828,3.187,2.828,8.373,0,11.56l-4.968,5.601l-4.969-5.601   C40.95,12.706,40.95,7.52,43.778,4.333z"/><path d="M52.604,54.517c-0.539-0.121-1.074,0.217-1.195,0.756c-0.115,0.51-0.338,0.979-0.663,1.392   c-0.341,0.434-0.267,1.063,0.168,1.404c0.184,0.144,0.401,0.214,0.617,0.214c0.297,0,0.59-0.131,0.787-0.382   c0.504-0.64,0.864-1.396,1.042-2.188C53.481,55.173,53.143,54.638,52.604,54.517z"/><path d="M31.995,31c-0.433-0.001-0.854-0.078-1.252-0.23c-0.512-0.195-1.093,0.062-1.291,0.578   c-0.196,0.516,0.063,1.094,0.578,1.291c0.626,0.238,1.285,0.36,1.963,0.361h0.357c0.553,0,1-0.447,1-1s-0.447-1-1-1H31.995z"/><path d="M29.621,24.676c0.181,0,0.363-0.049,0.528-0.151c0.443-0.276,0.933-0.445,1.454-0.503c0.549-0.061,0.945-0.555,0.885-1.104   s-0.551-0.941-1.104-0.885c-0.822,0.091-1.594,0.357-2.294,0.794c-0.469,0.292-0.611,0.909-0.319,1.378   C28.961,24.509,29.287,24.676,29.621,24.676z"/><path d="M18.064,58h-2c-0.553,0-1,0.447-1,1s0.447,1,1,1h2c0.553,0,1-0.447,1-1S18.616,58,18.064,58z"/><path d="M35.993,40c-0.086,0-0.171,0.002-0.256,0.006c-0.552,0.022-0.98,0.488-0.958,1.04c0.021,0.538,0.465,0.959,0.998,0.959   c0.014,0,0.028,0,0.042-0.001L37.778,42c0.553,0,1-0.447,1-1s-0.447-1-1-1H35.993z"/><path d="M35.493,24h2c0.553,0,1-0.447,1-1s-0.447-1-1-1h-2c-0.553,0-1,0.447-1,1S34.94,24,35.493,24z"/><path d="M47.778,40c-0.553,0-1,0.447-1,1s0.447,1,1,1h2c0.553,0,1-0.447,1-1s-0.447-1-1-1H47.778z"/><path d="M51.351,32c0-0.553-0.447-1-1-1h-2c-0.553,0-1,0.447-1,1s0.447,1,1,1h2C50.903,33,51.351,32.553,51.351,32z"/><path d="M41.778,42h2c0.553,0,1-0.447,1-1s-0.447-1-1-1h-2c-0.553,0-1,0.447-1,1S41.226,42,41.778,42z"/><path d="M43.493,24c0.553,0,1-0.447,1-1s-0.447-1-1-1h-2c-0.553,0-1,0.447-1,1s0.447,1,1,1H43.493z"/><path d="M36.351,31c-0.553,0-1,0.447-1,1s0.447,1,1,1h2c0.553,0,1-0.447,1-1s-0.447-1-1-1H36.351z"/><path d="M45.351,32c0-0.553-0.447-1-1-1h-2c-0.553,0-1,0.447-1,1s0.447,1,1,1h2C44.903,33,45.351,32.553,45.351,32z"/><path d="M59.426,35.632c-0.088-0.546-0.603-0.919-1.146-0.829c-0.546,0.087-0.917,0.601-0.829,1.146   c0.028,0.178,0.044,0.359,0.042,0.552c0,0.336-0.048,0.668-0.142,0.988c-0.155,0.53,0.148,1.086,0.679,1.241   c0.094,0.027,0.188,0.04,0.281,0.04c0.433,0,0.832-0.282,0.96-0.719c0.147-0.503,0.222-1.024,0.222-1.543   C59.495,36.22,59.473,35.925,59.426,35.632z"/><path d="M42.064,58h-2c-0.553,0-1,0.447-1,1s0.447,1,1,1h2c0.553,0,1-0.447,1-1S42.616,58,42.064,58z"/><path d="M36.064,58h-2c-0.553,0-1,0.447-1,1s0.447,1,1,1h2c0.553,0,1-0.447,1-1S36.616,58,36.064,58z"/><path d="M47.065,50c0-0.553-0.447-1-1-1h-2c-0.553,0-1,0.447-1,1s0.447,1,1,1h2C46.617,51,47.065,50.553,47.065,50z"/><path d="M41.065,50c0-0.553-0.447-1-1-1h-2c-0.553,0-1,0.447-1,1s0.447,1,1,1h2C40.617,51,41.065,50.553,41.065,50z"/><path d="M47.993,58h-1.93c-0.553,0-1,0.447-1,1s0.447,1,1,1l1.971-0.001l0.029-1v1c0.553,0,0.965-0.447,0.965-1   C49.028,58.447,48.546,58,47.993,58z"/><path d="M51.531,52.719c0.216,0,0.435-0.07,0.617-0.214c0.435-0.342,0.509-0.971,0.168-1.404c-0.503-0.639-1.152-1.167-1.879-1.528   c-0.497-0.247-1.095-0.044-1.341,0.45c-0.246,0.495-0.044,1.095,0.45,1.341c0.463,0.229,0.877,0.566,1.197,0.974   C50.941,52.588,51.234,52.719,51.531,52.719z"/><path d="M55.345,39.729C54.916,39.909,54.462,40,53.993,40h-0.215c-0.553,0-1,0.447-1,1s0.447,1,1,1h0.215   c0.736,0,1.451-0.144,2.125-0.427c0.51-0.214,0.749-0.8,0.535-1.309C56.44,39.755,55.85,39.515,55.345,39.729z"/><path d="M28.029,29.855c0.524-0.173,0.81-0.738,0.638-1.263c-0.115-0.351-0.174-0.718-0.174-1.088   c0.001-0.151,0.01-0.302,0.028-0.449c0.069-0.548-0.319-1.049-0.867-1.117c-0.565-0.063-1.049,0.321-1.117,0.867   c-0.028,0.226-0.043,0.456-0.044,0.694c0,0.588,0.092,1.166,0.273,1.718c0.139,0.421,0.53,0.688,0.95,0.688   C27.82,29.905,27.926,29.89,28.029,29.855z"/><path d="M24.064,58h-2c-0.553,0-1,0.447-1,1s0.447,1,1,1h2c0.553,0,1-0.447,1-1S24.616,58,24.064,58z"/><path d="M34.122,50.594c0.38,0,0.742-0.217,0.91-0.584c0.229-0.503,0.009-1.096-0.493-1.325c-0.469-0.215-0.894-0.538-1.228-0.936   c-0.356-0.423-0.986-0.478-1.409-0.122c-0.423,0.355-0.478,0.986-0.122,1.409c0.524,0.623,1.19,1.131,1.927,1.467   C33.842,50.564,33.983,50.594,34.122,50.594z"/><path d="M56.746,31.738c-0.714-0.414-1.494-0.657-2.317-0.722c-0.549-0.04-1.032,0.367-1.075,0.919   c-0.043,0.551,0.368,1.032,0.919,1.075c0.522,0.041,1.017,0.195,1.47,0.458c0.158,0.092,0.331,0.135,0.501,0.135   c0.345,0,0.681-0.179,0.866-0.498C57.387,32.628,57.224,32.016,56.746,31.738z"/><path d="M30.064,58h-2c-0.553,0-1,0.447-1,1s0.447,1,1,1h2c0.553,0,1-0.447,1-1S30.616,58,30.064,58z"/><path d="M32.555,44.839c0.099-0.514,0.307-0.989,0.619-1.413c0.327-0.444,0.232-1.07-0.213-1.398   c-0.445-0.326-1.07-0.232-1.398,0.213c-0.489,0.666-0.817,1.413-0.973,2.222c-0.104,0.542,0.251,1.066,0.794,1.171   c0.063,0.012,0.127,0.018,0.189,0.018C32.043,45.65,32.462,45.317,32.555,44.839z"/><path d="M48.993,15c3.032,0,5.5-2.468,5.5-5.5S52.025,4,48.993,4s-5.5,2.468-5.5,5.5S45.961,15,48.993,15z M48.993,6   c1.93,0,3.5,1.57,3.5,3.5s-1.57,3.5-3.5,3.5s-3.5-1.57-3.5-3.5S47.064,6,48.993,6z"/><path d="M12.493,31c-3.309,0-6,2.691-6,6s2.691,6,6,6s6-2.691,6-6S15.802,31,12.493,31z M12.493,41c-2.206,0-4-1.794-4-4   s1.794-4,4-4s4,1.794,4,4S14.699,41,12.493,41z"/></g><path d="M511.646,126.634c-0.021-14.449-11.782-26.189-26.227-26.189c-0.012,0-0.024,0-0.034,0L26.19,101.076    c-7.005,0.009-13.588,2.746-18.535,7.706C2.709,113.743-0.009,120.334,0,127.337l0.355,258.029    c0.009,7.005,2.746,13.588,7.706,18.535c4.951,4.938,11.526,7.655,18.519,7.655c0.012,0,0.025,0,0.035,0l459.194-0.631    c14.458-0.02,26.207-11.799,26.19-26.261L511.646,126.634z M456.611,126.71L256.02,266.154L55.04,127.262L456.611,126.71z     M340.846,292.471l118.971,92.265l-407.972,0.56l119.696-92.825c5.722-4.439,6.764-12.675,2.326-18.399    c-4.439-5.722-12.675-6.764-18.399-2.326L26.561,371.715l-0.32-232.475l222.344,153.657c2.244,1.551,4.849,2.325,7.455,2.325    c2.617,0,5.236-0.783,7.485-2.346l221.912-154.264l0.336,233.066l-128.856-99.931c-5.719-4.437-13.959-3.396-18.397,2.326    C334.081,279.795,335.122,288.033,340.846,292.471z" transform="matrix(0.07678042352199554 0 0 0.07678042352199554 274.3441524505615 5.344174453525511)" id="L1_26"/><g transform="matrix(0.6421613097190857 0 0 0.6421613097190857 13.73516070842743 266.73516070842743)" id="L1_27"><path d="M10.5,6.5C8.019,6.5,6,8.519,6,11s2.019,4.5,4.5,4.5S15,13.481,15,11S12.981,6.5,10.5,6.5z M10.5,13.5   C9.122,13.5,8,12.379,8,11s1.122-2.5,2.5-2.5S13,9.621,13,11S11.878,13.5,10.5,13.5z"/><circle cx="50" cy="9" r="1"/><circle cx="46" cy="9" r="1"/><circle cx="52" cy="12" r="1"/><circle cx="48" cy="12" r="1"/><circle cx="42" cy="9" r="1"/><circle cx="44" cy="12" r="1"/><circle cx="38" cy="9" r="1"/><circle cx="40" cy="12" r="1"/><circle cx="34" cy="9" r="1"/><circle cx="36" cy="12" r="1"/><path d="M60,16.892V5.108C60,2.567,57.933,0.5,55.392,0.5H4.608C2.067,0.5,0,2.567,0,5.108v11.783c0,1.469,0.703,2.764,1.777,3.608   C0.703,21.344,0,22.64,0,24.108v11.783c0,1.469,0.703,2.764,1.777,3.608C0.703,40.344,0,41.64,0,43.108v11.783   C0,57.433,2.067,59.5,4.608,59.5h50.783c2.541,0,4.608-2.067,4.608-4.608V43.108c0-1.469-0.703-2.764-1.777-3.608   C59.297,38.656,60,37.36,60,35.892V24.108c0-1.469-0.703-2.764-1.777-3.608C59.297,19.656,60,18.36,60,16.892z M58,43.108v11.783   c0,1.438-1.17,2.608-2.608,2.608H4.608C3.17,57.5,2,56.33,2,54.892V43.108C2,41.67,3.17,40.5,4.608,40.5h50.783   C56.83,40.5,58,41.67,58,43.108z M58,24.108v11.783c0,1.438-1.17,2.608-2.608,2.608H4.608C3.17,38.5,2,37.33,2,35.892V24.108   C2,22.67,3.17,21.5,4.608,21.5h50.783C56.83,21.5,58,22.67,58,24.108z M4.608,19.5C3.17,19.5,2,18.33,2,16.892V5.108   C2,3.67,3.17,2.5,4.608,2.5h50.783C56.83,2.5,58,3.67,58,5.108v11.783c0,1.438-1.17,2.608-2.608,2.608H4.608z"/><path d="M10.5,34.5c2.481,0,4.5-2.019,4.5-4.5s-2.019-4.5-4.5-4.5S6,27.519,6,30S8.019,34.5,10.5,34.5z M10.5,27.5   c1.378,0,2.5,1.121,2.5,2.5s-1.122,2.5-2.5,2.5S8,31.379,8,30S9.122,27.5,10.5,27.5z"/><circle cx="50" cy="28" r="1"/><circle cx="46" cy="28" r="1"/><circle cx="52" cy="31" r="1"/><circle cx="48" cy="31" r="1"/><circle cx="42" cy="28" r="1"/><circle cx="44" cy="31" r="1"/><circle cx="38" cy="28" r="1"/><circle cx="40" cy="31" r="1"/><circle cx="34" cy="28" r="1"/><circle cx="36" cy="31" r="1"/><path d="M10.5,53.5c2.481,0,4.5-2.019,4.5-4.5s-2.019-4.5-4.5-4.5S6,46.519,6,49S8.019,53.5,10.5,53.5z M10.5,46.5   c1.378,0,2.5,1.121,2.5,2.5s-1.122,2.5-2.5,2.5S8,50.379,8,49S9.122,46.5,10.5,46.5z"/><circle cx="50" cy="47" r="1"/><circle cx="46" cy="47" r="1"/><circle cx="52" cy="50" r="1"/><circle cx="48" cy="50" r="1"/><circle cx="42" cy="47" r="1"/><circle cx="44" cy="50" r="1"/><circle cx="38" cy="47" r="1"/><circle cx="40" cy="50" r="1"/><circle cx="34" cy="47" r="1"/><circle cx="36" cy="50" r="1"/></g><g transform="matrix(0.5656854510307312 0 0 0.5656854510307312 56.029436469078064 51.029436469078064)" id="L1_28"><path d="M30,0c-0.553,0-1,0.447-1,1v13.292c0,0.553,0.447,1,1,1s1-0.447,1-1V2.018C45.979,2.546,58,14.896,58,30   c0,15.439-12.561,28-28,28S2,45.439,2,30c0-7.46,2.9-14.479,8.166-19.764c0.391-0.392,0.389-1.024-0.002-1.414   C9.772,8.434,9.14,8.434,8.75,8.824C3.107,14.486,0,22.007,0,30c0,16.542,13.458,30,30,30s30-13.458,30-30S46.542,0,30,0z"/><path d="M28.555,33.532c0.614,0.845,1.563,1.376,2.604,1.457C31.252,34.997,31.345,35,31.437,35c0.942,0,1.848-0.372,2.519-1.044   c0.737-0.737,1.114-1.756,1.033-2.797s-0.612-1.99-1.459-2.606l-12.944-9.363c-0.396-0.286-0.945-0.242-1.293,0.104   c-0.348,0.348-0.391,0.896-0.104,1.293L28.555,33.532z M32.355,30.172c0.371,0.27,0.604,0.687,0.64,1.144   c0.036,0.456-0.13,0.903-0.453,1.227c-0.324,0.323-0.779,0.488-1.228,0.453c-0.456-0.035-0.873-0.269-1.141-0.637l-5.713-7.897   L32.355,30.172z"/></g><g transform="matrix(0.6565479636192322 0 0 0.6565479636192322 67.30356109142303 268.30356109142303)" id="L1_29"><path d="M38.914,0H6.5v60h47V14.586L38.914,0z M39.5,3.414L50.086,14H39.5V3.414z M8.5,58V2h29v14h14v42H8.5z"/><path d="M16.5,17h9c0.553,0,1-0.447,1-1s-0.447-1-1-1h-9c-0.553,0-1,0.447-1,1S15.947,17,16.5,17z"/><path d="M16.5,25h5c0.553,0,1-0.447,1-1s-0.447-1-1-1h-5c-0.553,0-1,0.447-1,1S15.947,25,16.5,25z"/><path d="M31.5,25h7c0.553,0,1-0.447,1-1s-0.447-1-1-1h-7c-0.553,0-1,0.447-1,1S30.947,25,31.5,25z"/><path d="M25.79,23.3c-0.19,0.18-0.29,0.439-0.29,0.7c0,0.26,0.1,0.52,0.29,0.71C25.979,24.89,26.24,25,26.5,25s0.52-0.101,0.71-0.3   c0.18-0.181,0.29-0.44,0.29-0.7c0-0.261-0.11-0.521-0.29-0.71C26.83,22.92,26.16,22.92,25.79,23.3z"/><path d="M43.5,25c0.26,0,0.52-0.11,0.71-0.29c0.18-0.19,0.29-0.45,0.29-0.71c0-0.261-0.11-0.521-0.29-0.71   c-0.38-0.37-1.04-0.37-1.42,0c-0.181,0.189-0.29,0.449-0.29,0.71c0,0.26,0.109,0.52,0.29,0.71C42.979,24.89,43.24,25,43.5,25z"/><path d="M28.5,31h-7c-0.553,0-1,0.447-1,1s0.447,1,1,1h7c0.553,0,1-0.447,1-1S29.053,31,28.5,31z"/><path d="M16.5,33c0.26,0,0.52-0.11,0.71-0.29c0.189-0.19,0.29-0.45,0.29-0.71c0-0.261-0.101-0.521-0.29-0.71   c-0.38-0.37-1.04-0.37-1.42,0C15.6,31.479,15.5,31.729,15.5,32c0,0.26,0.109,0.52,0.29,0.71C15.979,32.89,16.24,33,16.5,33z"/><path d="M19.645,40.166c-2.19,1.14-2.927,3.321-3.196,5.582c-0.414-0.347-0.828-0.693-1.242-1.04   c-0.98-0.821-2.402,0.586-1.414,1.415c0.935,0.783,1.871,1.567,2.806,2.351c0.658,0.551,1.677,0.203,1.707-0.707   c0.073-2.166,0.175-4.742,2.348-5.873C21.796,41.299,20.786,39.572,19.645,40.166z"/><path d="M26.295,44.155c-1.385,0.321-2.961,2.083-3.936,0.106c-0.569-1.154-2.295-0.142-1.727,1.009   c0.517,1.049,1.5,1.784,2.669,1.932c0.594,0.075,1.131-0.009,1.688-0.226c0.409-0.159,1.937-1.308,2.267-0.717   c0.628,1.124,2.356,0.116,1.727-1.009C28.446,44.288,27.359,43.908,26.295,44.155z"/><path d="M46.745,34.513c-0.233-0.083-0.336-0.259-0.377-0.357c-0.04-0.098-0.093-0.296,0.014-0.52c0.485-1.022,0.282-2.199-0.518-3   c-0.801-0.799-1.979-1.003-2.999-0.518c-0.226,0.107-0.424,0.054-0.521,0.014c-0.099-0.041-0.274-0.144-0.357-0.377   C41.608,28.688,40.632,28,39.5,28s-2.108,0.688-2.487,1.755c-0.083,0.233-0.259,0.336-0.357,0.377   c-0.097,0.04-0.296,0.094-0.52-0.014c-1.021-0.483-2.198-0.282-3,0.518c-0.8,0.801-1.003,1.978-0.518,2.999   c0.106,0.225,0.054,0.423,0.014,0.521c-0.041,0.099-0.144,0.274-0.377,0.357C31.188,34.892,30.5,35.868,30.5,37   s0.688,2.108,1.755,2.487c0.233,0.083,0.336,0.259,0.377,0.357c0.04,0.098,0.093,0.296-0.014,0.52   c-0.485,1.022-0.282,2.199,0.518,3c0.387,0.386,0.862,0.63,1.364,0.728v12.322l5-5l5,5V44.091c0.502-0.097,0.978-0.34,1.364-0.727   c0.8-0.801,1.003-1.978,0.518-2.999c-0.106-0.225-0.054-0.423-0.014-0.521c0.041-0.099,0.144-0.274,0.377-0.357   C47.812,39.108,48.5,38.132,48.5,37S47.812,34.892,46.745,34.513z M39.5,48.586l-3,3v-7.758c0.009,0.001,0.018,0.002,0.026,0.004   c0.05,0.01,0.098,0.022,0.13,0.036c0.049,0.021,0.118,0.057,0.184,0.116c0.067,0.06,0.132,0.144,0.173,0.261   C37.392,45.312,38.368,46,39.5,46s2.108-0.688,2.487-1.755c0.041-0.117,0.106-0.201,0.173-0.261   c0.067-0.06,0.135-0.096,0.184-0.116c0.032-0.013,0.079-0.026,0.129-0.036c0.008-0.001,0.017-0.003,0.026-0.004v7.757L39.5,48.586z    M46.075,37.603c-0.702,0.249-1.269,0.787-1.554,1.476c-0.286,0.689-0.267,1.471,0.054,2.146c0.175,0.367-0.029,0.63-0.126,0.726   c-0.079,0.081-0.281,0.224-0.561,0.17l-0.22-0.069c-0.091-0.041-0.187-0.063-0.281-0.092c-0.07-0.022-0.138-0.052-0.209-0.069   c-0.098-0.022-0.199-0.028-0.299-0.039c-0.081-0.009-0.16-0.026-0.241-0.028c-0.097-0.002-0.193,0.014-0.289,0.022   c-0.083,0.008-0.167,0.006-0.25,0.022c-0.177,0.033-0.351,0.084-0.52,0.154c0,0-0.001,0-0.002,0.001h0   c-0.044,0.018-0.081,0.047-0.124,0.067c-0.124,0.06-0.249,0.119-0.362,0.197c-0.135,0.093-0.258,0.203-0.373,0.319   c-0.013,0.013-0.03,0.023-0.043,0.037c-0.252,0.265-0.449,0.583-0.574,0.934C39.967,43.959,39.636,44,39.5,44   s-0.467-0.041-0.603-0.425c-0.125-0.352-0.322-0.669-0.574-0.934c-0.01-0.011-0.023-0.018-0.034-0.029   c-0.118-0.12-0.244-0.231-0.383-0.327c-0.108-0.075-0.229-0.131-0.348-0.189c-0.047-0.023-0.089-0.055-0.138-0.075h0   c-0.001,0-0.001-0.001-0.001-0.001c-0.021-0.009-0.043-0.011-0.064-0.019c-0.146-0.056-0.294-0.103-0.445-0.132   c-0.122-0.024-0.243-0.029-0.365-0.036c-0.045-0.002-0.09-0.013-0.135-0.013c-0.003,0-0.005,0.001-0.008,0.001   c-0.374-0.001-0.737,0.072-1.047,0.223l-0.227,0.071c-0.287,0.065-0.496-0.083-0.578-0.166c-0.097-0.096-0.301-0.358-0.126-0.727   c0.32-0.674,0.34-1.455,0.054-2.145c-0.285-0.688-0.852-1.227-1.554-1.476C32.541,37.467,32.5,37.136,32.5,37   s0.041-0.467,0.425-0.603c0.702-0.249,1.269-0.787,1.554-1.476c0.286-0.689,0.267-1.471-0.054-2.146   c-0.175-0.367,0.029-0.63,0.126-0.726c0.096-0.097,0.357-0.299,0.727-0.126c0.673,0.32,1.455,0.342,2.145,0.054   c0.688-0.285,1.227-0.852,1.476-1.554C39.033,30.041,39.364,30,39.5,30s0.467,0.041,0.603,0.425   c0.25,0.702,0.787,1.269,1.476,1.554c0.688,0.288,1.471,0.267,2.146-0.054c0.366-0.177,0.631,0.029,0.726,0.126   c0.097,0.096,0.301,0.358,0.126,0.727c-0.32,0.674-0.34,1.455-0.054,2.145c0.285,0.688,0.852,1.227,1.554,1.476   C46.459,36.533,46.5,36.864,46.5,37S46.459,37.467,46.075,37.603z"/></g><g transform="matrix(0.5296359062194824 0 0 0.5296359062194824 67.25050193891843 4.375741481781006)" id="L1_31"><path d="M10.407,1.707c0.391-0.391,0.391-1.023,0-1.414s-1.023-0.391-1.414,0c-11.307,11.307-11.307,29.705,0,41.012   C9.189,41.5,9.445,41.598,9.7,41.598s0.512-0.098,0.707-0.293c0.391-0.391,0.391-1.023,0-1.414   C-0.12,29.363-0.12,12.234,10.407,1.707z"/><path d="M50.005,0.293c-0.391-0.391-1.023-0.391-1.414,0s-0.391,1.023,0,1.414c5.092,5.091,7.896,11.871,7.896,19.092   S53.683,34.8,48.591,39.891c-0.391,0.391-0.391,1.023,0,1.414c0.195,0.195,0.451,0.293,0.707,0.293s0.512-0.098,0.707-0.293   c5.47-5.469,8.481-12.751,8.481-20.506S55.475,5.762,50.005,0.293z"/><path d="M14.651,5.949c0.391-0.391,0.391-1.023,0-1.414s-1.023-0.391-1.414,0c-8.968,8.968-8.968,23.56,0,32.527   c0.195,0.195,0.451,0.293,0.707,0.293s0.512-0.098,0.707-0.293c0.391-0.391,0.391-1.023,0-1.414   C6.463,27.46,6.463,14.138,14.651,5.949z"/><path d="M45.763,4.535c-0.391-0.391-1.023-0.391-1.414,0s-0.391,1.023,0,1.414c8.188,8.188,8.188,21.511,0,29.699   c-0.391,0.391-0.391,1.023,0,1.414c0.195,0.195,0.451,0.293,0.707,0.293s0.512-0.098,0.707-0.293   C54.731,28.095,54.731,13.503,45.763,4.535z"/><path d="M18.893,8.778c-0.391-0.391-1.023-0.391-1.414,0c-3.206,3.206-4.972,7.475-4.972,12.021s1.766,8.814,4.972,12.021   c0.195,0.195,0.451,0.293,0.707,0.293s0.512-0.098,0.707-0.293c0.391-0.391,0.391-1.023,0-1.414   c-5.849-5.849-5.849-15.364,0-21.213C19.283,9.802,19.283,9.169,18.893,8.778z"/><path d="M41.521,8.778c-0.391-0.391-1.023-0.391-1.414,0s-0.391,1.023,0,1.414c5.849,5.849,5.849,15.364,0,21.213   c-0.391,0.391-0.391,1.023,0,1.414c0.195,0.195,0.451,0.293,0.707,0.293s0.512-0.098,0.707-0.293   c3.206-3.206,4.972-7.475,4.972-12.021S44.727,11.984,41.521,8.778z"/><path d="M29.499,14c-3.859,0-7,3.141-7,7c0,3.519,2.614,6.432,6,6.92V58c0,0.553,0.447,1,1,1s1-0.447,1-1V27.92   c3.386-0.488,6-3.401,6-6.92C36.499,17.141,33.359,14,29.499,14z M29.499,26c-2.757,0-5-2.243-5-5s2.243-5,5-5s5,2.243,5,5   S32.256,26,29.499,26z"/></g><path d="M57.49,21.5H54v-6.268c0-1.507-1.226-2.732-2.732-2.732H26.515l-5-7H2.732C1.226,5.5,0,6.726,0,8.232v43.687l0.006,0  c-0.005,0.563,0.17,1.114,0.522,1.575C1.018,54.134,1.76,54.5,2.565,54.5h44.759c1.156,0,2.174-0.779,2.45-1.813L60,24.649v-0.177  C60,22.75,58.944,21.5,57.49,21.5z M2,8.232C2,7.828,2.329,7.5,2.732,7.5h17.753l5,7h25.782c0.404,0,0.732,0.328,0.732,0.732V21.5  H12.731c-0.144,0-0.287,0.012-0.426,0.036c-0.973,0.163-1.782,0.873-2.023,1.776L2,45.899V8.232z M47.869,52.083  c-0.066,0.245-0.291,0.417-0.545,0.417H2.565c-0.243,0-0.385-0.139-0.448-0.222c-0.063-0.082-0.16-0.256-0.123-0.408l10.191-27.953  c0.066-0.245,0.291-0.417,0.545-0.417H54h3.49c0.38,0,0.477,0.546,0.502,0.819L47.869,52.083z" transform="matrix(0.6970789432525635 0 0 0.6970789432525635 127.0876317024231 307.0876317024231)" id="L1_32"/><path d="M59,28h-2.18c-0.951-5.666-5.85-10-11.748-10c-5.822,0-10.696,4.119-11.825,9.579c-0.971-0.814-2.079-1.246-3.247-1.246  c-1.167,0-2.274,0.432-3.245,1.245C25.639,22.118,20.825,18,15.072,18C8.756,18,3.565,22.851,3.051,29H1c-0.553,0-1,0.448-1,1  s0.447,1,1,1h2.051c0.514,6.149,5.705,11,12.021,11c6.467,0,11.736-5.207,11.911-11.671c0.853-1.285,1.915-1.996,3.017-1.996  c1.102,0,2.164,0.712,3.017,1.996C33.195,36.793,38.528,42,45.072,42C51.649,42,57,36.617,57,30h2c0.553,0,1-0.448,1-1  S59.553,28,59,28z M15.072,40C9.519,40,5,35.514,5,30s4.519-10,10.072-10C20.64,20,25,24.393,25,30S20.64,40,15.072,40z M45.072,40  C39.519,40,35,35.514,35,30s4.519-10,10.072-10C50.64,20,55,24.393,55,30S50.64,40,45.072,40z" transform="matrix(0.7737305760383606 0 0 0.7737305760383606 213.78808271884918 303.7880827188492)" id="L1_33"/><g transform="matrix(0.6581193208694458 0 0 0.6581193208694458 306.2564203739166 303.2564203739166)" id="L1_34"><path d="M38.914,0H6.5v60h47V14.586L38.914,0z M39.5,3.414L50.086,14H39.5V3.414z M8.5,58V2h29v14h14v42H8.5z"/><path d="M34.5,37c0.552,0,1-0.447,1-1s-0.448-1-1-1h-17c-0.552,0-1,0.447-1,1s0.448,1,1,1H34.5z"/><path d="M44.5,30h-7c-0.552,0-1,0.447-1,1s0.448,1,1,1h7c0.552,0,1-0.447,1-1S45.052,30,44.5,30z"/><path d="M21.5,31c0,0.553,0.448,1,1,1h10c0.552,0,1-0.447,1-1s-0.448-1-1-1h-10C21.948,30,21.5,30.447,21.5,31z"/><path d="M16.79,30.29c-0.18,0.189-0.29,0.449-0.29,0.71c0,0.26,0.11,0.52,0.29,0.7c0.18,0.189,0.44,0.3,0.71,0.3   s0.52-0.11,0.71-0.29c0.18-0.19,0.29-0.45,0.29-0.71c0-0.261-0.11-0.521-0.29-0.71C17.84,29.92,17.15,29.93,16.79,30.29z"/><path d="M38.79,35.29c-0.18,0.189-0.29,0.439-0.29,0.71c0,0.27,0.1,0.52,0.29,0.71C38.98,36.89,39.24,37,39.5,37   c0.26,0,0.52-0.11,0.71-0.29c0.19-0.19,0.29-0.44,0.29-0.71c0-0.261-0.11-0.521-0.29-0.71C39.83,34.92,39.17,34.92,38.79,35.29z"/><path d="M43.79,35.29c-0.18,0.189-0.29,0.439-0.29,0.71c0,0.27,0.1,0.52,0.29,0.71C43.98,36.89,44.24,37,44.5,37   c0.26,0,0.52-0.11,0.71-0.3c0.19-0.19,0.29-0.44,0.29-0.7c0-0.261-0.11-0.521-0.29-0.71C44.83,34.92,44.17,34.92,43.79,35.29z"/><path d="M23.025,40.166c-2.19,1.14-2.927,3.321-3.196,5.582c-0.414-0.347-0.828-0.693-1.242-1.04   c-0.98-0.821-2.402,0.586-1.414,1.415c0.935,0.783,1.871,1.567,2.806,2.351c0.658,0.551,1.676,0.203,1.707-0.707   c0.073-2.166,0.175-4.742,2.348-5.873C25.177,41.299,24.166,39.572,23.025,40.166z"/><path d="M36.455,44.108c-1.458-0.092-3.592,2.155-4.716,0.153c-0.26-0.464-0.913-0.638-1.368-0.359   c-1.416,0.869-3.267,2.119-4.756,0.5c-0.873-0.949-2.285,0.468-1.414,1.414c1.87,2.033,4.276,1.415,6.399,0.263   c0.478,0.535,1.071,0.926,1.837,1.081c0.792,0.16,4.025-1.141,4.2-0.901c0.752,1.029,2.488,0.032,1.727-1.009   C37.847,44.543,37.371,44.166,36.455,44.108z"/><path d="M28.666,23.963l0.674-0.479l-0.344-0.752c-0.312-0.682-0.813-1.212-1.45-1.532l-2.12-1.082   c0.975-0.623,1.676-1.561,2.095-2.801c0.684-0.417,1.115-1.158,1.115-1.984v-0.667c0-0.677-0.294-1.308-0.794-1.745   c-0.357-1.898-1.644-3.951-5.54-3.951c-0.153,0-0.303,0.006-0.451,0.018c-0.523,0.043-1.285,0-1.937-0.438   c-0.303-0.204-0.458-0.362-0.534-0.459c-0.317-0.403-0.849-0.544-1.324-0.35c-0.474,0.195-0.752,0.669-0.694,1.179   c0.03,0.257,0.073,0.557,0.138,0.884c0.084,0.42,0.089,0.541,0.086,0.573c-0.008,0.035-0.066,0.159-0.112,0.259   c-0.07,0.15-0.156,0.335-0.257,0.582c-0.217,0.529-0.375,1.105-0.471,1.719c-0.489,0.438-0.778,1.063-0.778,1.73v0.667   c0,0.826,0.431,1.567,1.115,1.984c0.417,1.235,1.115,2.171,2.083,2.793l-2.204,1.087c-0.613,0.334-1.091,0.867-1.382,1.541   l-0.32,0.741l0.656,0.469C17.797,25.291,20.004,26,22.302,26C24.592,26,26.792,25.296,28.666,23.963z M18.016,22.907l2.445-1.204   c0.519-0.257,0.842-0.776,0.842-1.355v-1.422l-0.604-0.261c-0.912-0.392-1.506-1.151-1.819-2.321l-0.143-0.533l-0.527-0.164   c-0.116-0.036-0.24-0.149-0.24-0.313v-0.667c0-0.142,0.095-0.242,0.184-0.289l0.469-0.25l0.055-0.529   c0.062-0.595,0.193-1.14,0.391-1.622c0.086-0.211,0.16-0.368,0.22-0.497c0.155-0.332,0.249-0.578,0.283-0.855   c0.73,0.305,1.559,0.425,2.44,0.358c0.095-0.008,0.192-0.012,0.291-0.012c2.919,0,3.469,1.334,3.622,2.638l0.061,0.523l0.466,0.245   c0.089,0.047,0.185,0.147,0.185,0.29v0.667c0,0.164-0.125,0.277-0.24,0.313l-0.527,0.164l-0.143,0.533   c-0.313,1.17-0.908,1.93-1.819,2.321l-0.604,0.261v1.428c0,0.57,0.315,1.086,0.825,1.347l2.415,1.233   C23.923,24.343,20.628,24.334,18.016,22.907z"/></g><g transform="matrix(0.48654013872146606 0 0 0.48654013872146606 42.40379583835602 315.403795838356)" id="L1_35"><circle cx="30" cy="26" r="1"/><circle cx="33" cy="24" r="1"/><circle cx="27" cy="24" r="1"/><circle cx="24" cy="22" r="1"/><circle cx="36" cy="22" r="1"/><circle cx="39" cy="20" r="1"/><circle cx="21" cy="20" r="1"/><circle cx="30" cy="22" r="1"/><circle cx="30" cy="34" r="1"/><circle cx="30" cy="37" r="1"/><circle cx="30" cy="40" r="1"/><circle cx="30" cy="43" r="1"/><circle cx="30" cy="46" r="1"/><circle cx="30" cy="49" r="1"/><path d="M54,58h-3v-4h-5V43.778c0-2.7-1.342-5.208-3.589-6.706L31.803,30l10.608-7.072C44.658,21.43,46,18.922,46,16.222V6h5V2h3   c0.552,0,1-0.447,1-1s-0.448-1-1-1h-3h-1H10H9H6C5.448,0,5,0.447,5,1s0.448,1,1,1h3v4h5v10.222c0,2.7,1.342,5.208,3.589,6.706   L28.197,30l-10.608,7.072C15.342,38.57,14,41.078,14,43.778V54H9v4H6c-0.552,0-1,0.447-1,1s0.448,1,1,1h3h1h40h1h3   c0.552,0,1-0.447,1-1S54.552,58,54,58z M11,4V2h38v2h-3H14H11z M18.698,21.264C17.009,20.137,16,18.252,16,16.222V6h28v10.222   c0,2.03-1.009,3.915-2.698,5.042L30,28.798L18.698,21.264z M16,43.778c0-2.03,1.009-3.915,2.698-5.042L30,31.202l11.302,7.534   C42.991,39.863,44,41.748,44,43.778V54H16V43.778z M11,56h3h32h3v2H11V56z"/></g><g transform="matrix(0.11571916937828064 0 0 0.11571916937828064 186.89490172679825 275.87752805650234)" id="L1_36"><path d="m252.79,70.826l-48.173-40.117c-2.596-2.162-6.363-2.161-8.959,0l-48.174,40.117c-1.597,1.33-2.521,3.301-2.521,5.379v195.143c0,3.866 3.134,7 7,7h96.347c3.866,0 7-3.134 7-7v-195.143c0.001-2.078-0.923-4.05-2.52-5.379zm-11.479,193.522h-82.347v-184.863l41.174-34.288 41.173,34.288v184.863z"/><path d="m151.968,54.117c1.579,0 3.167-0.531 4.476-1.621l43.694-36.387 43.693,36.387c2.972,2.475 7.386,2.072 9.858-0.899 2.474-2.971 2.071-7.385-0.899-9.858l-48.173-40.118c-2.596-2.162-6.363-2.161-8.959-2.22045e-15l-48.174,40.117c-2.971,2.474-3.373,6.888-0.899,9.858 1.385,1.663 3.376,2.521 5.383,2.521z"/><path d="m130.863,151.333l-48.173-40.118c-2.596-2.161-6.363-2.161-8.959,0l-48.173,40.117c-1.597,1.33-2.521,3.301-2.521,5.379v114.636c0,3.866 3.134,7 7,7h96.347c3.866,0 7-3.134 7-7v-114.635c0-2.079-0.924-4.05-2.521-5.379zm-11.479,113.015h-82.347v-104.357l41.173-34.288 41.174,34.288v104.357z"/><path d="m34.517,133.003l43.693-36.387 43.694,36.387c1.309,1.09 2.896,1.622 4.476,1.621 2.007,0 3.999-0.858 5.383-2.521 2.474-2.971 2.071-7.385-0.899-9.858l-48.174-40.117c-2.596-2.161-6.363-2.161-8.959,0l-48.173,40.117c-2.971,2.474-3.373,6.888-0.899,9.858 2.473,2.972 6.886,3.374 9.858,0.9z"/><path d="m71.21,166.391v51.9l-3.188-3.188c-2.734-2.733-7.166-2.733-9.9,0-2.733,2.733-2.733,7.166 0,9.899l13.793,13.792c1.735,1.735 4.015,2.602 6.295,2.602s4.561-0.868 6.298-2.603l13.791-13.791c2.733-2.733 2.733-7.166 0-9.899-2.734-2.733-7.166-2.733-9.9,0l-3.188,3.188v-51.901c0-3.866-3.134-7-7-7s-7.001,3.135-7.001,7.001z"/><path d="m193.84,149.149l-13.791,13.791c-2.733,2.733-2.733,7.166 0,9.899 2.734,2.733 7.166,2.733 9.9,0l3.188-3.188v51.901c0,3.866 3.134,7 7,7s7-3.134 7-7v-51.9l3.188,3.188c1.367,1.367 3.159,2.05 4.95,2.05s3.583-0.684 4.95-2.05c2.733-2.733 2.733-7.166 0-9.899l-13.793-13.792c-3.47-3.472-9.117-3.471-12.592,0z"/></g><g transform="matrix(0.05770173668861389 0 0 0.05770173668861389 238.8569524437189 130.82135555572256)" id="L1_37"><path d="M194.5,324.35l15-24.2c3.6-5.8,1.8-13.3-4-16.9c-5.7-3.6-13.3-1.8-16.9,4l-15,24.2c-27.2,43.9-66,69.1-106.6,69.1H12.2    c-6.8,0-12.2,5.5-12.2,12.3s5.5,12.3,12.2,12.3h54.9C116.4,404.95,162.8,375.55,194.5,324.35z"/><path d="M486.4,88.75L427,29.25c-4.8-4.8-12.5-4.8-17.3,0s-4.8,12.5,0,17.3l38.6,38.6c-0.1,0-0.1,0-0.2,0h-56.7    c-49.2,0-95.7,29.4-127.4,80.6l-9.2,14.9c-3.6,5.8-1.8,13.3,4,16.9c2,1.2,4.2,1.8,6.4,1.8c4.1,0,8.1-2.1,10.4-5.8l9.2-14.9    c27.2-43.9,66-69,106.6-69H448c0.1,0,0.1,0,0.2,0l-38.6,38.6c-4.8,4.8-4.8,12.5,0,17.3c2.4,2.4,5.5,3.6,8.7,3.6s6.3-1.2,8.7-3.6    l59.5-59.5C491.2,101.25,491.2,93.45,486.4,88.75z M460.3,97.55c0-0.1,0-0.1,0-0.2s0-0.1,0-0.2l0.2,0.2L460.3,97.55z"/><path d="M409.6,460.85c2.4,2.4,5.5,3.6,8.7,3.6s6.3-1.2,8.7-3.6l59.5-59.5c4.8-4.8,4.8-12.5,0-17.3l-59.5-59.4    c-4.8-4.8-12.5-4.8-17.3,0s-4.8,12.5,0,17.3l38.6,38.6c-0.1,0-0.1,0-0.2,0h-54.9c-40.5,0-79.4-25.2-106.6-69.1l-90.2-145.7    c-31.7-51.3-78.2-80.6-127.4-80.6H12.2c-6.8,0-12.2,5.5-12.2,12.3s5.5,12.3,12.2,12.3h56.7c40.5,0,79.4,25.2,106.6,69l90.2,145.7    c31.7,51.3,78.2,80.7,127.4,80.7H448c0.1,0,0.1,0,0.2,0l-38.6,38.6C404.9,448.35,404.9,456.05,409.6,460.85z M460.3,392.55    l0.2,0.2l-0.2,0.2c0-0.1,0-0.1,0-0.2S460.3,392.65,460.3,392.55z"/></g><path d="M47.533,0H8.467C3.798,0,0,3.798,0,8.467v39.066C0,52.202,3.798,56,8.467,56h39.066C52.202,56,56,52.202,56,47.533V8.467  C56,3.798,52.202,0,47.533,0z M54,47.533C54,51.099,51.099,54,47.533,54H8.467C4.901,54,2,51.099,2,47.533V30.414l6.247-6.247  C9.038,24.691,9.983,25,11,25s1.962-0.309,2.753-0.833l10.08,10.08C23.309,35.038,23,35.983,23,37c0,2.757,2.243,5,5,5s5-2.243,5-5  c0-1.017-0.309-1.962-0.833-2.753L46,20.414V27c0,0.553,0.447,1,1,1s1-0.447,1-1V17H38c-0.553,0-1,0.447-1,1s0.447,1,1,1h6.586  L30.753,32.833C29.962,32.309,29.017,32,28,32s-1.962,0.309-2.753,0.833l-10.08-10.08C15.691,21.962,16,21.017,16,20  c0-2.757-2.243-5-5-5s-5,2.243-5,5c0,1.017,0.309,1.962,0.833,2.753L2,27.586V8.467C2,4.901,4.901,2,8.467,2h39.066  C51.099,2,54,4.901,54,8.467V47.533z M11,23c-1.654,0-3-1.346-3-3s1.346-3,3-3s3,1.346,3,3S12.654,23,11,23z M31,37  c0,1.654-1.346,3-3,3s-3-1.346-3-3s1.346-3,3-3S31,35.346,31,37z" transform="matrix(0.5050762891769409 0 0 0.5050762891769409 23.857862949371338 155.85786294937134)" id="L1_38"/></defs><g fi:class="KUsePattern"><pattern id="pattern_L1_0" width="350" height="350" patternUnits="userSpaceOnUse"><use xlink:href="#L1_0" x="-350" y="-350"/><use xlink:href="#L1_0" x="0" y="-350"/><use xlink:href="#L1_0" x="350" y="-350"/><use xlink:href="#L1_0" x="-350" y="0"/><use xlink:href="#L1_0" x="0" y="0"/><use xlink:href="#L1_0" x="350" y="0"/><use xlink:href="#L1_0" x="-350" y="350"/><use xlink:href="#L1_0" x="0" y="350"/><use xlink:href="#L1_0" x="350" y="350"/></pattern><rect x="0" y="0" width="100%" height="100%" fill="url(#pattern_L1_0)"/></g><g fi:class="KUsePattern"><pattern id="pattern_L1_1" width="350" height="350" patternUnits="userSpaceOnUse"><use xlink:href="#L1_1" x="-350" y="-350"/><use xlink:href="#L1_1" x="0" y="-350"/><use xlink:href="#L1_1" x="350" y="-350"/><use xlink:href="#L1_1" x="-350" y="0"/><use xlink:href="#L1_1" x="0" y="0"/><use xlink:href="#L1_1" x="350" y="0"/><use xlink:href="#L1_1" x="-350" y="350"/><use xlink:href="#L1_1" x="0" y="350"/><use xlink:href="#L1_1" x="350" y="350"/></pattern><rect x="0" y="0" width="100%" height="100%" fill="url(#pattern_L1_1)"/></g><g fi:class="KUsePattern"><pattern id="pattern_L1_4" width="350" height="350" patternUnits="userSpaceOnUse"><use xlink:href="#L1_4" x="-350" y="-350"/><use xlink:href="#L1_4" x="0" y="-350"/><use xlink:href="#L1_4" x="350" y="-350"/><use xlink:href="#L1_4" x="-350" y="0"/><use xlink:href="#L1_4" x="0" y="0"/><use xlink:href="#L1_4" x="350" y="0"/><use xlink:href="#L1_4" x="-350" y="350"/><use xlink:href="#L1_4" x="0" y="350"/><use xlink:href="#L1_4" x="350" y="350"/></pattern><rect x="0" y="0" width="100%" height="100%" fill="url(#pattern_L1_4)"/></g><g fi:class="KUsePattern"><pattern id="pattern_L1_5" width="350" height="350" patternUnits="userSpaceOnUse"><use xlink:href="#L1_5" x="-350" y="-350"/><use xlink:href="#L1_5" x="0" y="-350"/><use xlink:href="#L1_5" x="350" y="-350"/><use xlink:href="#L1_5" x="-350" y="0"/><use xlink:href="#L1_5" x="0" y="0"/><use xlink:href="#L1_5" x="350" y="0"/><use xlink:href="#L1_5" x="-350" y="350"/><use xlink:href="#L1_5" x="0" y="350"/><use xlink:href="#L1_5" x="350" y="350"/></pattern><rect x="0" y="0" width="100%" height="100%" fill="url(#pattern_L1_5)"/></g><g fi:class="KUsePattern"><pattern id="pattern_L1_6" width="350" height="350" patternUnits="userSpaceOnUse"><use xlink:href="#L1_6" x="-350" y="-350"/><use xlink:href="#L1_6" x="0" y="-350"/><use xlink:href="#L1_6" x="350" y="-350"/><use xlink:href="#L1_6" x="-350" y="0"/><use xlink:href="#L1_6" x="0" y="0"/><use xlink:href="#L1_6" x="350" y="0"/><use xlink:href="#L1_6" x="-350" y="350"/><use xlink:href="#L1_6" x="0" y="350"/><use xlink:href="#L1_6" x="350" y="350"/></pattern><rect x="0" y="0" width="100%" height="100%" fill="url(#pattern_L1_6)"/></g><g fi:class="KUsePattern"><pattern id="pattern_L1_7" width="350" height="350" patternUnits="userSpaceOnUse"><use xlink:href="#L1_7" x="-350" y="-350"/><use xlink:href="#L1_7" x="0" y="-350"/><use xlink:href="#L1_7" x="350" y="-350"/><use xlink:href="#L1_7" x="-350" y="0"/><use xlink:href="#L1_7" x="0" y="0"/><use xlink:href="#L1_7" x="350" y="0"/><use xlink:href="#L1_7" x="-350" y="350"/><use xlink:href="#L1_7" x="0" y="350"/><use xlink:href="#L1_7" x="350" y="350"/></pattern><rect x="0" y="0" width="100%" height="100%" fill="url(#pattern_L1_7)"/></g><g fi:class="KUsePattern"><pattern id="pattern_L1_8" width="350" height="350" patternUnits="userSpaceOnUse"><use xlink:href="#L1_8" x="-350" y="-350"/><use xlink:href="#L1_8" x="0" y="-350"/><use xlink:href="#L1_8" x="350" y="-350"/><use xlink:href="#L1_8" x="-350" y="0"/><use xlink:href="#L1_8" x="0" y="0"/><use xlink:href="#L1_8" x="350" y="0"/><use xlink:href="#L1_8" x="-350" y="350"/><use xlink:href="#L1_8" x="0" y="350"/><use xlink:href="#L1_8" x="350" y="350"/></pattern><rect x="0" y="0" width="100%" height="100%" fill="url(#pattern_L1_8)"/></g><g fi:class="KUsePattern"><pattern id="pattern_L1_9" width="350" height="350" patternUnits="userSpaceOnUse"><use xlink:href="#L1_9" x="-350" y="-350"/><use xlink:href="#L1_9" x="0" y="-350"/><use xlink:href="#L1_9" x="350" y="-350"/><use xlink:href="#L1_9" x="-350" y="0"/><use xlink:href="#L1_9" x="0" y="0"/><use xlink:href="#L1_9" x="350" y="0"/><use xlink:href="#L1_9" x="-350" y="350"/><use xlink:href="#L1_9" x="0" y="350"/><use xlink:href="#L1_9" x="350" y="350"/></pattern><rect x="0" y="0" width="100%" height="100%" fill="url(#pattern_L1_9)"/></g><g fi:class="KUsePattern"><pattern id="pattern_L1_11" width="350" height="350" patternUnits="userSpaceOnUse"><use xlink:href="#L1_11" x="-350" y="-350"/><use xlink:href="#L1_11" x="0" y="-350"/><use xlink:href="#L1_11" x="350" y="-350"/><use xlink:href="#L1_11" x="-350" y="0"/><use xlink:href="#L1_11" x="0" y="0"/><use xlink:href="#L1_11" x="350" y="0"/><use xlink:href="#L1_11" x="-350" y="350"/><use xlink:href="#L1_11" x="0" y="350"/><use xlink:href="#L1_11" x="350" y="350"/></pattern><rect x="0" y="0" width="100%" height="100%" fill="url(#pattern_L1_11)"/></g><g fi:class="KUsePattern"><pattern id="pattern_L1_12" width="350" height="350" patternUnits="userSpaceOnUse"><use xlink:href="#L1_12" x="-350" y="-350"/><use xlink:href="#L1_12" x="0" y="-350"/><use xlink:href="#L1_12" x="350" y="-350"/><use xlink:href="#L1_12" x="-350" y="0"/><use xlink:href="#L1_12" x="0" y="0"/><use xlink:href="#L1_12" x="350" y="0"/><use xlink:href="#L1_12" x="-350" y="350"/><use xlink:href="#L1_12" x="0" y="350"/><use xlink:href="#L1_12" x="350" y="350"/></pattern><rect x="0" y="0" width="100%" height="100%" fill="url(#pattern_L1_12)"/></g><g fi:class="KUsePattern"><pattern id="pattern_L1_13" width="350" height="350" patternUnits="userSpaceOnUse"><use xlink:href="#L1_13" x="-350" y="-350"/><use xlink:href="#L1_13" x="0" y="-350"/><use xlink:href="#L1_13" x="350" y="-350"/><use xlink:href="#L1_13" x="-350" y="0"/><use xlink:href="#L1_13" x="0" y="0"/><use xlink:href="#L1_13" x="350" y="0"/><use xlink:href="#L1_13" x="-350" y="350"/><use xlink:href="#L1_13" x="0" y="350"/><use xlink:href="#L1_13" x="350" y="350"/></pattern><rect x="0" y="0" width="100%" height="100%" fill="url(#pattern_L1_13)"/></g><g fi:class="KUsePattern"><pattern id="pattern_L1_14" width="350" height="350" patternUnits="userSpaceOnUse"><use xlink:href="#L1_14" x="-350" y="-350"/><use xlink:href="#L1_14" x="0" y="-350"/><use xlink:href="#L1_14" x="350" y="-350"/><use xlink:href="#L1_14" x="-350" y="0"/><use xlink:href="#L1_14" x="0" y="0"/><use xlink:href="#L1_14" x="350" y="0"/><use xlink:href="#L1_14" x="-350" y="350"/><use xlink:href="#L1_14" x="0" y="350"/><use xlink:href="#L1_14" x="350" y="350"/></pattern><rect x="0" y="0" width="100%" height="100%" fill="url(#pattern_L1_14)"/></g><g fi:class="KUsePattern"><pattern id="pattern_L1_15" width="350" height="350" patternUnits="userSpaceOnUse"><use xlink:href="#L1_15" x="-350" y="-350"/><use xlink:href="#L1_15" x="0" y="-350"/><use xlink:href="#L1_15" x="350" y="-350"/><use xlink:href="#L1_15" x="-350" y="0"/><use xlink:href="#L1_15" x="0" y="0"/><use xlink:href="#L1_15" x="350" y="0"/><use xlink:href="#L1_15" x="-350" y="350"/><use xlink:href="#L1_15" x="0" y="350"/><use xlink:href="#L1_15" x="350" y="350"/></pattern><rect x="0" y="0" width="100%" height="100%" fill="url(#pattern_L1_15)"/></g><g fi:class="KUsePattern"><pattern id="pattern_L1_16" width="350" height="350" patternUnits="userSpaceOnUse"><use xlink:href="#L1_16" x="-350" y="-350"/><use xlink:href="#L1_16" x="0" y="-350"/><use xlink:href="#L1_16" x="350" y="-350"/><use xlink:href="#L1_16" x="-350" y="0"/><use xlink:href="#L1_16" x="0" y="0"/><use xlink:href="#L1_16" x="350" y="0"/><use xlink:href="#L1_16" x="-350" y="350"/><use xlink:href="#L1_16" x="0" y="350"/><use xlink:href="#L1_16" x="350" y="350"/></pattern><rect x="0" y="0" width="100%" height="100%" fill="url(#pattern_L1_16)"/></g><g fi:class="KUsePattern"><pattern id="pattern_L1_17" width="350" height="350" patternUnits="userSpaceOnUse"><use xlink:href="#L1_17" x="-350" y="-350"/><use xlink:href="#L1_17" x="0" y="-350"/><use xlink:href="#L1_17" x="350" y="-350"/><use xlink:href="#L1_17" x="-350" y="0"/><use xlink:href="#L1_17" x="0" y="0"/><use xlink:href="#L1_17" x="350" y="0"/><use xlink:href="#L1_17" x="-350" y="350"/><use xlink:href="#L1_17" x="0" y="350"/><use xlink:href="#L1_17" x="350" y="350"/></pattern><rect x="0" y="0" width="100%" height="100%" fill="url(#pattern_L1_17)"/></g><g fi:class="KUsePattern"><pattern id="pattern_L1_18" width="350" height="350" patternUnits="userSpaceOnUse"><use xlink:href="#L1_18" x="-350" y="-350"/><use xlink:href="#L1_18" x="0" y="-350"/><use xlink:href="#L1_18" x="350" y="-350"/><use xlink:href="#L1_18" x="-350" y="0"/><use xlink:href="#L1_18" x="0" y="0"/><use xlink:href="#L1_18" x="350" y="0"/><use xlink:href="#L1_18" x="-350" y="350"/><use xlink:href="#L1_18" x="0" y="350"/><use xlink:href="#L1_18" x="350" y="350"/></pattern><rect x="0" y="0" width="100%" height="100%" fill="url(#pattern_L1_18)"/></g><g fi:class="KUsePattern"><pattern id="pattern_L1_19" width="350" height="350" patternUnits="userSpaceOnUse"><use xlink:href="#L1_19" x="-350" y="-350"/><use xlink:href="#L1_19" x="0" y="-350"/><use xlink:href="#L1_19" x="350" y="-350"/><use xlink:href="#L1_19" x="-350" y="0"/><use xlink:href="#L1_19" x="0" y="0"/><use xlink:href="#L1_19" x="350" y="0"/><use xlink:href="#L1_19" x="-350" y="350"/><use xlink:href="#L1_19" x="0" y="350"/><use xlink:href="#L1_19" x="350" y="350"/></pattern><rect x="0" y="0" width="100%" height="100%" fill="url(#pattern_L1_19)"/></g><g fi:class="KUsePattern"><pattern id="pattern_L1_21" width="350" height="350" patternUnits="userSpaceOnUse"><use xlink:href="#L1_21" x="-350" y="-350"/><use xlink:href="#L1_21" x="0" y="-350"/><use xlink:href="#L1_21" x="350" y="-350"/><use xlink:href="#L1_21" x="-350" y="0"/><use xlink:href="#L1_21" x="0" y="0"/><use xlink:href="#L1_21" x="350" y="0"/><use xlink:href="#L1_21" x="-350" y="350"/><use xlink:href="#L1_21" x="0" y="350"/><use xlink:href="#L1_21" x="350" y="350"/></pattern><rect x="0" y="0" width="100%" height="100%" fill="url(#pattern_L1_21)"/></g><g fi:class="KUsePattern"><pattern id="pattern_L1_22" width="350" height="350" patternUnits="userSpaceOnUse"><use xlink:href="#L1_22" x="-350" y="-350"/><use xlink:href="#L1_22" x="0" y="-350"/><use xlink:href="#L1_22" x="350" y="-350"/><use xlink:href="#L1_22" x="-350" y="0"/><use xlink:href="#L1_22" x="0" y="0"/><use xlink:href="#L1_22" x="350" y="0"/><use xlink:href="#L1_22" x="-350" y="350"/><use xlink:href="#L1_22" x="0" y="350"/><use xlink:href="#L1_22" x="350" y="350"/></pattern><rect x="0" y="0" width="100%" height="100%" fill="url(#pattern_L1_22)"/></g><g fi:class="KUsePattern"><pattern id="pattern_L1_23" width="350" height="350" patternUnits="userSpaceOnUse"><use xlink:href="#L1_23" x="-350" y="-350"/><use xlink:href="#L1_23" x="0" y="-350"/><use xlink:href="#L1_23" x="350" y="-350"/><use xlink:href="#L1_23" x="-350" y="0"/><use xlink:href="#L1_23" x="0" y="0"/><use xlink:href="#L1_23" x="350" y="0"/><use xlink:href="#L1_23" x="-350" y="350"/><use xlink:href="#L1_23" x="0" y="350"/><use xlink:href="#L1_23" x="350" y="350"/></pattern><rect x="0" y="0" width="100%" height="100%" fill="url(#pattern_L1_23)"/></g><g fi:class="KUsePattern"><pattern id="pattern_L1_24" width="350" height="350" patternUnits="userSpaceOnUse"><use xlink:href="#L1_24" x="-350" y="-350"/><use xlink:href="#L1_24" x="0" y="-350"/><use xlink:href="#L1_24" x="350" y="-350"/><use xlink:href="#L1_24" x="-350" y="0"/><use xlink:href="#L1_24" x="0" y="0"/><use xlink:href="#L1_24" x="350" y="0"/><use xlink:href="#L1_24" x="-350" y="350"/><use xlink:href="#L1_24" x="0" y="350"/><use xlink:href="#L1_24" x="350" y="350"/></pattern><rect x="0" y="0" width="100%" height="100%" fill="url(#pattern_L1_24)"/></g><g fi:class="KUsePattern"><pattern id="pattern_L1_25" width="350" height="350" patternUnits="userSpaceOnUse"><use xlink:href="#L1_25" x="-350" y="-350"/><use xlink:href="#L1_25" x="0" y="-350"/><use xlink:href="#L1_25" x="350" y="-350"/><use xlink:href="#L1_25" x="-350" y="0"/><use xlink:href="#L1_25" x="0" y="0"/><use xlink:href="#L1_25" x="350" y="0"/><use xlink:href="#L1_25" x="-350" y="350"/><use xlink:href="#L1_25" x="0" y="350"/><use xlink:href="#L1_25" x="350" y="350"/></pattern><rect x="0" y="0" width="100%" height="100%" fill="url(#pattern_L1_25)"/></g><g fi:class="KUsePattern"><pattern id="pattern_L1_26" width="350" height="350" patternUnits="userSpaceOnUse"><use xlink:href="#L1_26" x="-350" y="-350"/><use xlink:href="#L1_26" x="0" y="-350"/><use xlink:href="#L1_26" x="350" y="-350"/><use xlink:href="#L1_26" x="-350" y="0"/><use xlink:href="#L1_26" x="0" y="0"/><use xlink:href="#L1_26" x="350" y="0"/><use xlink:href="#L1_26" x="-350" y="350"/><use xlink:href="#L1_26" x="0" y="350"/><use xlink:href="#L1_26" x="350" y="350"/></pattern><rect x="0" y="0" width="100%" height="100%" fill="url(#pattern_L1_26)"/></g><g fi:class="KUsePattern"><pattern id="pattern_L1_27" width="350" height="350" patternUnits="userSpaceOnUse"><use xlink:href="#L1_27" x="-350" y="-350"/><use xlink:href="#L1_27" x="0" y="-350"/><use xlink:href="#L1_27" x="350" y="-350"/><use xlink:href="#L1_27" x="-350" y="0"/><use xlink:href="#L1_27" x="0" y="0"/><use xlink:href="#L1_27" x="350" y="0"/><use xlink:href="#L1_27" x="-350" y="350"/><use xlink:href="#L1_27" x="0" y="350"/><use xlink:href="#L1_27" x="350" y="350"/></pattern><rect x="0" y="0" width="100%" height="100%" fill="url(#pattern_L1_27)"/></g><g fi:class="KUsePattern"><pattern id="pattern_L1_28" width="350" height="350" patternUnits="userSpaceOnUse"><use xlink:href="#L1_28" x="-350" y="-350"/><use xlink:href="#L1_28" x="0" y="-350"/><use xlink:href="#L1_28" x="350" y="-350"/><use xlink:href="#L1_28" x="-350" y="0"/><use xlink:href="#L1_28" x="0" y="0"/><use xlink:href="#L1_28" x="350" y="0"/><use xlink:href="#L1_28" x="-350" y="350"/><use xlink:href="#L1_28" x="0" y="350"/><use xlink:href="#L1_28" x="350" y="350"/></pattern><rect x="0" y="0" width="100%" height="100%" fill="url(#pattern_L1_28)"/></g><g fi:class="KUsePattern"><pattern id="pattern_L1_29" width="350" height="350" patternUnits="userSpaceOnUse"><use xlink:href="#L1_29" x="-350" y="-350"/><use xlink:href="#L1_29" x="0" y="-350"/><use xlink:href="#L1_29" x="350" y="-350"/><use xlink:href="#L1_29" x="-350" y="0"/><use xlink:href="#L1_29" x="0" y="0"/><use xlink:href="#L1_29" x="350" y="0"/><use xlink:href="#L1_29" x="-350" y="350"/><use xlink:href="#L1_29" x="0" y="350"/><use xlink:href="#L1_29" x="350" y="350"/></pattern><rect x="0" y="0" width="100%" height="100%" fill="url(#pattern_L1_29)"/></g><g fi:class="KUsePattern"><pattern id="pattern_L1_31" width="350" height="350" patternUnits="userSpaceOnUse"><use xlink:href="#L1_31" x="-350" y="-350"/><use xlink:href="#L1_31" x="0" y="-350"/><use xlink:href="#L1_31" x="350" y="-350"/><use xlink:href="#L1_31" x="-350" y="0"/><use xlink:href="#L1_31" x="0" y="0"/><use xlink:href="#L1_31" x="350" y="0"/><use xlink:href="#L1_31" x="-350" y="350"/><use xlink:href="#L1_31" x="0" y="350"/><use xlink:href="#L1_31" x="350" y="350"/></pattern><rect x="0" y="0" width="100%" height="100%" fill="url(#pattern_L1_31)"/></g><g fi:class="KUsePattern"><pattern id="pattern_L1_32" width="350" height="350" patternUnits="userSpaceOnUse"><use xlink:href="#L1_32" x="-350" y="-350"/><use xlink:href="#L1_32" x="0" y="-350"/><use xlink:href="#L1_32" x="350" y="-350"/><use xlink:href="#L1_32" x="-350" y="0"/><use xlink:href="#L1_32" x="0" y="0"/><use xlink:href="#L1_32" x="350" y="0"/><use xlink:href="#L1_32" x="-350" y="350"/><use xlink:href="#L1_32" x="0" y="350"/><use xlink:href="#L1_32" x="350" y="350"/></pattern><rect x="0" y="0" width="100%" height="100%" fill="url(#pattern_L1_32)"/></g><g fi:class="KUsePattern"><pattern id="pattern_L1_33" width="350" height="350" patternUnits="userSpaceOnUse"><use xlink:href="#L1_33" x="-350" y="-350"/><use xlink:href="#L1_33" x="0" y="-350"/><use xlink:href="#L1_33" x="350" y="-350"/><use xlink:href="#L1_33" x="-350" y="0"/><use xlink:href="#L1_33" x="0" y="0"/><use xlink:href="#L1_33" x="350" y="0"/><use xlink:href="#L1_33" x="-350" y="350"/><use xlink:href="#L1_33" x="0" y="350"/><use xlink:href="#L1_33" x="350" y="350"/></pattern><rect x="0" y="0" width="100%" height="100%" fill="url(#pattern_L1_33)"/></g><g fi:class="KUsePattern"><pattern id="pattern_L1_34" width="350" height="350" patternUnits="userSpaceOnUse"><use xlink:href="#L1_34" x="-350" y="-350"/><use xlink:href="#L1_34" x="0" y="-350"/><use xlink:href="#L1_34" x="350" y="-350"/><use xlink:href="#L1_34" x="-350" y="0"/><use xlink:href="#L1_34" x="0" y="0"/><use xlink:href="#L1_34" x="350" y="0"/><use xlink:href="#L1_34" x="-350" y="350"/><use xlink:href="#L1_34" x="0" y="350"/><use xlink:href="#L1_34" x="350" y="350"/></pattern><rect x="0" y="0" width="100%" height="100%" fill="url(#pattern_L1_34)"/></g><g fi:class="KUsePattern"><pattern id="pattern_L1_35" width="350" height="350" patternUnits="userSpaceOnUse"><use xlink:href="#L1_35" x="-350" y="-350"/><use xlink:href="#L1_35" x="0" y="-350"/><use xlink:href="#L1_35" x="350" y="-350"/><use xlink:href="#L1_35" x="-350" y="0"/><use xlink:href="#L1_35" x="0" y="0"/><use xlink:href="#L1_35" x="350" y="0"/><use xlink:href="#L1_35" x="-350" y="350"/><use xlink:href="#L1_35" x="0" y="350"/><use xlink:href="#L1_35" x="350" y="350"/></pattern><rect x="0" y="0" width="100%" height="100%" fill="url(#pattern_L1_35)"/></g><g fi:class="KUsePattern"><pattern id="pattern_L1_36" width="350" height="350" patternUnits="userSpaceOnUse"><use xlink:href="#L1_36" x="-350" y="-350"/><use xlink:href="#L1_36" x="0" y="-350"/><use xlink:href="#L1_36" x="350" y="-350"/><use xlink:href="#L1_36" x="-350" y="0"/><use xlink:href="#L1_36" x="0" y="0"/><use xlink:href="#L1_36" x="350" y="0"/><use xlink:href="#L1_36" x="-350" y="350"/><use xlink:href="#L1_36" x="0" y="350"/><use xlink:href="#L1_36" x="350" y="350"/></pattern><rect x="0" y="0" width="100%" height="100%" fill="url(#pattern_L1_36)"/></g><g fi:class="KUsePattern"><pattern id="pattern_L1_37" width="350" height="350" patternUnits="userSpaceOnUse"><use xlink:href="#L1_37" x="-350" y="-350"/><use xlink:href="#L1_37" x="0" y="-350"/><use xlink:href="#L1_37" x="350" y="-350"/><use xlink:href="#L1_37" x="-350" y="0"/><use xlink:href="#L1_37" x="0" y="0"/><use xlink:href="#L1_37" x="350" y="0"/><use xlink:href="#L1_37" x="-350" y="350"/><use xlink:href="#L1_37" x="0" y="350"/><use xlink:href="#L1_37" x="350" y="350"/></pattern><rect x="0" y="0" width="100%" height="100%" fill="url(#pattern_L1_37)"/></g><g fi:class="KUsePattern"><pattern id="pattern_L1_38" width="350" height="350" patternUnits="userSpaceOnUse"><use xlink:href="#L1_38" x="-350" y="-350"/><use xlink:href="#L1_38" x="0" y="-350"/><use xlink:href="#L1_38" x="350" y="-350"/><use xlink:href="#L1_38" x="-350" y="0"/><use xlink:href="#L1_38" x="0" y="0"/><use xlink:href="#L1_38" x="350" y="0"/><use xlink:href="#L1_38" x="-350" y="350"/><use xlink:href="#L1_38" x="0" y="350"/><use xlink:href="#L1_38" x="350" y="350"/></pattern><rect x="0" y="0" width="100%" height="100%" fill="url(#pattern_L1_38)"/></g></svg>